<?xml version="1.0" encoding="utf-8"?>
<!-- Generator: Adobe Illustrator 24.0.1, SVG Export Plug-In . SVG Version: 6.00 Build 0)  -->
<svg version="1.1" xmlns="http://www.w3.org/2000/svg" xmlns:xlink="http://www.w3.org/1999/xlink" x="0px" y="0px"
	 viewBox="0 0 744.3 243.1" style="enable-background:new 0 0 744.3 243.1;" xml:space="preserve">
<style type="text/css">
	.st0{fill:#1F499F;}
	.st1{fill:#0E183F;}
	.st2{display:none;}
	.st3{display:inline;}
	.st4{fill:#F1F2F2;}
	.st5{fill:#FFFFFF;}
	.st6{fill:#606161;}
</style>
<g id="_x30_2_Logo_Horizontal_-_Americas_Imoveis_copy">
	<g id="Americas_Imoveis_copy">
	</g>
	<g id="Layer_10">
	</g>
</g>
<g id="Layer_18">
</g>
<g id="_x30_4_x5F__Logo_x5F_cabeçalho_x5F_visita" class="st2">
	<g id="Americas_Imoveis" class="st3">
	</g>
	<g id="Layer_10_copy" class="st3">
	</g>
</g>
<g id="_x30_3_x5F_Marca_x5F_dagua_x5F_logo_x5F_370x278">
	<g id="LOGO">
	</g>
	<g id="AMERICAS">
	</g>
	<g id="Layer_8">
	</g>
</g>
<g id="Layer_19">
</g>
<g id="_x30_1_Logo_Vertical-_Americas_Imoveis_copy">
	<g id="Layer_17">
	</g>
	<g id="LOGO_copy">
	</g>
	<g id="AMERICAS_copy">
	</g>
	<g id="Layer_8_copy">
	</g>
</g>
<g id="Layer_13" class="st2">
</g>
<g id="TEXTS" class="st2">
</g>
<g id="Layer_20">
</g>
<g id="Layer_21">
	<g>
		<g>
			<path class="st1" d="M357.4,114.3h-36.4l-6,13.1h-14.2l31.2-69.6h14.3l31.2,69.6h-14.3L357.4,114.3z M339.2,72.4L326.3,102h25.8
				L339.2,72.4z"/>
			<path class="st1" d="M414.2,127.4v-26.2c0-6.5-3.4-12.3-10-12.3c-6.6,0-10.4,5.9-10.4,12.3v26.2h-12.1V78.3h11.2l0.9,6
				c2.6-5,8.3-6.8,12.9-6.8c5.9,0,11.7,2.4,14.5,9.1c4.4-7,10-8.9,16.4-8.9c13.9,0,20.8,8.5,20.8,23.3v26.4h-12.1v-26.4
				c0-6.5-2.7-11.9-9.2-11.9s-10.6,5.7-10.6,12.1v26.2H414.2z"/>
			<path class="st1" d="M519.3,107.2H481c0.8,6.1,6.1,10.4,14.6,10.4c4.5,0,10.3-1.7,13.1-4.6l7.8,7.7c-5.2,5.4-13.6,8-21.1,8
				c-16.9,0-26.9-10.4-26.9-26.1c0-14.9,10.1-25.6,26-25.6C510.9,76.9,521.2,87,519.3,107.2z M481.2,97.2h26.4
				c-0.8-6.4-5.8-9.5-12.7-9.5C488.3,87.6,483,90.8,481.2,97.2z M508.8,56.3h-14.3l-7.4,13.5v0.6h10.7l10.9-13.6V56.3z"/>
			<path class="st1" d="M539.8,78.4l0.9,5.7c3.8-6.1,8.8-7,13.8-7c5.1,0,9.9,2,12.6,4.7l-5.5,10.5c-2.5-2.1-4.8-3.2-8.7-3.2
				c-6.4,0-12.2,3.4-12.2,12.4v25.8h-12.1v-49H539.8z"/>
			<path class="st1" d="M585,64.6c0,9.4-14.3,9.4-14.3,0S585,55.1,585,64.6z M571.7,78.2v49.2h12.1V78.2H571.7z"/>
			<path class="st1" d="M636.9,121.1c-5.7,5.6-11.6,7.8-18.9,7.8c-14.2,0-26-8.5-26-25.9c0-17.4,11.8-25.9,26-25.9
				c7,0,12.3,2,17.7,7.3l-7.7,8.1c-2.9-2.6-6.5-3.9-9.8-3.9c-8.2,0-14.1,6-14.1,14.5c0,9.3,6.4,14.3,13.9,14.3
				c3.9,0,7.8-1.1,10.7-4.1L636.9,121.1z"/>
			<path class="st1" d="M681.1,78.4h11.6v49h-11.4l-0.6-7.2c-2.8,5.8-10.4,8.5-15.9,8.6c-14.5,0.1-25.2-8.8-25.2-26
				c0-16.9,11.2-25.7,25.5-25.6c6.6,0,12.8,3.1,15.6,8L681.1,78.4z M651.7,102.8c0,9.3,6.5,14.9,14.5,14.9c19.1,0,19.1-29.7,0-29.7
				C658.1,88,651.7,93.5,651.7,102.8z"/>
			<path class="st1" d="M735,91.4c-3.5-3.3-7.5-4.4-12.1-4.4c-5.8,0-8.9,1.8-8.9,4.9c0,3.2,2.9,5,9.1,5.4c9.2,0.6,21,2.7,21,15.7
				c0,8.6-7.1,16.1-21.1,16.1c-7.8,0-15.5-1.3-22.7-8.7l6-8.6c3.5,3.9,11.4,6.8,16.9,6.9c4.6,0.1,8.8-2.3,8.8-5.9
				c0-3.4-2.8-4.8-9.7-5.2c-9.2-0.7-20.3-4.1-20.3-15.2C702,81,713.7,77,722.6,77c7.7,0,13.4,1.5,19.1,6.5L735,91.4z"/>
		</g>
		<g>
			<path class="st0" d="M306,182.3v-39.4h7.4v39.4H306z"/>
			<path class="st0" d="M338.3,182.3v-14.9c0-3.7-1.9-7-5.7-7c-3.7,0-5.9,3.3-5.9,7v14.9h-6.9v-27.8h6.4l0.5,3.4
				c1.5-2.8,4.7-3.8,7.3-3.8c3.3,0,6.6,1.4,8.2,5.2c2.5-3.9,5.7-5.1,9.3-5.1c7.9,0,11.8,4.8,11.8,13.2v15h-6.9v-15
				c0-3.7-1.5-6.8-5.2-6.8c-3.7,0-6,3.2-6,6.9v14.9H338.3z"/>
			<path class="st0" d="M383.3,154c8.8,0,14.5,6.5,14.5,14.5c0,8-5.5,14.5-14.5,14.5c-9,0-14.4-6.5-14.4-14.5
				C369,160.5,374.5,154,383.3,154z M383.4,160.3c-5,0-7.5,4.1-7.5,8.2c0,4.2,2.5,8.2,7.5,8.2c5,0,7.5-3.9,7.5-8.2
				C390.9,164.3,388,160.3,383.4,160.3z M392.2,142.7h-8.1l-4.2,7.7v0.3h6.1l6.2-7.7V142.7z"/>
			<path class="st0" d="M430.8,154.5l-11.8,27.9h-7.4l-11.9-27.9h7.5l3.8,9.2l4.3,11.7l4.2-11.6l3.8-9.3H430.8z"/>
			<path class="st0" d="M439.9,170.9c0.5,3.4,3.4,5.9,8.3,5.9c2.5,0,5.9-1,7.4-2.6l4.4,4.3c-2.9,3-7.7,4.5-11.9,4.5
				c-9.6,0-15.3-5.9-15.3-14.8c0-8.4,5.7-14.5,14.7-14.5c9.3,0,15.1,5.7,14,17.2H439.9z M455,165.2c-0.5-3.6-3.3-5.4-7.2-5.4
				c-3.7,0-6.8,1.8-7.8,5.4H455z"/>
			<path class="st0" d="M474.4,146.8c0,5.3-8.1,5.3-8.1,0C466.3,141.4,474.4,141.4,474.4,146.8z M466.9,154.5v27.9h6.9v-27.9H466.9z
				"/>
			<path class="st0" d="M498.1,162c-2-1.9-4.2-2.5-6.9-2.5c-3.3,0-5.1,1-5.1,2.8c0,1.8,1.6,2.8,5.2,3c5.2,0.3,11.9,1.5,11.9,8.9
				c0,4.9-4,9.1-11.9,9.1c-4.4,0-8.8-0.7-12.8-5l3.4-4.9c2,2.2,6.5,3.8,9.6,3.9c2.6,0.1,5-1.3,5-3.3c0-1.9-1.6-2.7-5.5-2.9
				c-5.2-0.4-11.5-2.3-11.5-8.6c0-6.4,6.6-8.7,11.7-8.7c4.3,0,7.6,0.8,10.8,3.7L498.1,162z"/>
		</g>
		<circle id="XMLID_576_" class="st0" cx="215.1" cy="27" r="26.1"/>
		<polygon class="st1" points="241.1,196.6 241.1,66.7 189.2,66.7 189.2,109.7 132.6,0.9 30.9,196.6 0.3,196.6 0.3,209.5 
			24.1,209.5 83.5,209.5 132.6,114.3 181.7,209.5 186.8,209.5 189.2,209.5 241.1,209.5 270,209.5 270,196.6 		"/>
		<g id="XMLID_558_">
			<g>
				<path class="st1" d="M61,239.5c-1.9,1.9-4.3,2.7-6.9,2.7c-6.8,0-9.7-4.7-9.7-9.4c0-4.8,3.1-9.6,9.7-9.6c2.5,0,4.8,0.9,6.7,2.8
					l-2.3,2.2c-1.2-1.2-2.8-1.7-4.4-1.7c-4.4,0-6.3,3.3-6.3,6.3c0,3,1.8,6.2,6.3,6.2c1.6,0,3.4-0.7,4.6-1.9L61,239.5z"/>
				<path class="st1" d="M79.2,241.8h-4.1l-5.3-6.1h-3.3v6.1H63v-18.3c2.9,0,5.8,0,8.7,0c4.3,0,6.6,2.9,6.6,6.1c0,2.5-1.1,5-4.6,5.7
					l5.5,6.2V241.8z M66.4,226.7v5.8h5.2c2.2,0,3.1-1.5,3.1-2.9c0-1.5-1-2.9-3.1-2.9H66.4z"/>
				<path class="st1" d="M94.2,241.8H80.5c0-6.1,0-12.2,0-18.3h13.7v3.3H83.9v4.2h9.9v3.2h-9.9v4.1h10.3V241.8z"/>
				<path class="st1" d="M113,239.5c-1.9,1.9-4.3,2.7-6.9,2.7c-6.8,0-9.7-4.7-9.7-9.4c0-4.8,3.1-9.6,9.7-9.6c2.5,0,4.8,0.9,6.7,2.8
					l-2.3,2.2c-1.2-1.2-2.8-1.7-4.4-1.7c-4.4,0-6.3,3.3-6.3,6.3c0,3,1.8,6.2,6.3,6.2c1.6,0,3.4-0.7,4.6-1.9L113,239.5z"/>
				<path class="st1" d="M114.9,241.8v-18.3h3.4v18.3H114.9z"/>
				<path class="st1" d="M142.2,234c0,4.7-3,8.2-8,8.2c-4.7,0-8-2.8-8-8h3.4c0,3.1,1.5,4.7,4.6,4.7c3.1,0,4.6-2.2,4.6-4.9v-7.3h-5.5
					v-3.2c3,0,5.9,0,9,0V234z"/>
				<path class="st1" d="M145,231.8h9.6v2.9H145V231.8z"/>
				<path class="st1" d="M158,241.8l7.5-15h-8.9v-3.3H170l0.2,1.8l-8.2,16.4H158z"/>
				<path class="st1" d="M172.9,241.8l7.5-15h-8.9v-3.3h13.4l0.2,1.8l-8.2,16.4H172.9z"/>
				<path class="st1" d="M186.6,231.3c0-10.9,16-10.9,16,0v2.6c0,10.9-16,10.9-16,0V231.3z M190,233.9c0,6.6,9.2,6.6,9.2,0v-2.6
					c0-6.5-9.2-6.6-9.2,0V233.9z"/>
				<path class="st1" d="M204.7,231.3c0-10.9,16-10.9,16,0v2.6c0,10.9-16,10.9-16,0V231.3z M208.2,233.9c0,6.6,9.2,6.6,9.2,0v-2.6
					c0-6.5-9.2-6.6-9.2,0V233.9z"/>
			</g>
		</g>
	</g>
</g>
</svg>
