<?xml version="1.0" encoding="utf-8"?>
<!-- Generator: Adobe Illustrator 24.0.1, SVG Export Plug-In . SVG Version: 6.00 Build 0)  -->
<svg version="1.1" xmlns="http://www.w3.org/2000/svg" xmlns:xlink="http://www.w3.org/1999/xlink" x="0px" y="0px"
	 viewBox="0 0 350 350" style="enable-background:new 0 0 350 350;" xml:space="preserve">
<style type="text/css">
	.st0{fill:#1F499F;}
	.st1{fill:#0E183F;}
	.st2{display:none;}
	.st3{display:inline;}
	.st4{fill:#F1F2F2;}
	.st5{fill:#FFFFFF;}
	.st6{fill:#606161;}
</style>
<g id="_x30_2_Logo_Horizontal_-_Americas_Imoveis_copy">
	<g id="Americas_Imoveis_copy">
		
			<text id="XMLID_1095_" transform="matrix(1 0 0 1 -5830.3154 -248.3085)" class="st1" style="font-family:'NexaBold'; font-size:219.3579px;">Américas </text>
		
			<text id="XMLID_1094_" transform="matrix(1 0 0 1 -5830.3154 -127.0576)" class="st0" style="font-family:'NexaBold'; font-size:124.2171px;">Imóveis</text>
	</g>
	<g id="Layer_10">
		<circle id="XMLID_507_" class="st0" cx="-6024.6" cy="-469.9" r="57.5"/>
		<rect id="XMLID_508_" x="-6081.9" y="-382.3" class="st1" width="114.5" height="315.3"/>
		<polygon id="XMLID_509_" class="st1" points="-6315.1,-67 -6446.1,-67 -6206.7,-527.4 -6206.7,-277.2 		"/>
		<g id="XMLID_510_">
			<polygon class="st1" points="-6098.3,-67 -5967.3,-67 -6206.7,-527.4 -6206.7,-277.2 			"/>
		</g>
		<rect id="XMLID_514_" x="-6498.6" y="-95.7" class="st1" width="183.5" height="28.6"/>
		<rect id="XMLID_515_" x="-6087" y="-95.7" class="st1" width="183.5" height="28.6"/>
	</g>
</g>
<g id="Layer_18">
</g>
<g id="_x30_4_x5F__Logo_x5F_cabeçalho_x5F_visita" class="st2">
	<g id="Americas_Imoveis" class="st3">
	</g>
	<g id="Layer_10_copy" class="st3">
		<g id="XMLID_1741_">
			
				<text id="XMLID_512_" transform="matrix(1 0 0 1 -3862.489 1053.2712)" class="st1" style="font-family:'NexaBold'; font-size:46.0939px;">Américas </text>
			
				<text id="XMLID_513_" transform="matrix(1 0 0 1 -3862.489 1078.7498)" class="st0" style="font-family:'NexaBold'; font-size:26.1019px;">Imóveis</text>
			<circle id="XMLID_1247_" class="st0" cx="-3903.3" cy="1006.7" r="12.1"/>
			<rect id="XMLID_1240_" x="-3915.3" y="1025.1" class="st1" width="24.1" height="66.2"/>
			<polygon id="XMLID_1238_" class="st1" points="-3964.4,1091.4 -3991.9,1091.4 -3941.6,994.6 -3941.6,1047.2 			"/>
			<g id="XMLID_1105_">
				<polygon class="st1" points="-3918.8,1091.4 -3891.3,1091.4 -3941.6,994.6 -3941.6,1047.2 				"/>
			</g>
			<rect id="XMLID_1099_" x="-4002.9" y="1085.3" class="st1" width="38.6" height="6"/>
			<rect id="XMLID_1098_" x="-3916.4" y="1085.3" class="st1" width="38.6" height="6"/>
		</g>
		<g id="XMLID_1289_">
			
				<text id="XMLID_1299_" transform="matrix(1 0 0 1 -3820.0288 1255.6693)" class="st1" style="font-family:'NexaBold'; font-size:55.3536px;">Américas </text>
			
				<text id="XMLID_1298_" transform="matrix(1 0 0 1 -3820.0288 1286.266)" class="st0" style="font-family:'NexaBold'; font-size:31.3454px;">Imóveis</text>
			<circle id="XMLID_1297_" class="st0" cx="-3869.1" cy="1199.8" r="14.5"/>
			<rect id="XMLID_1296_" x="-3883.5" y="1221.9" class="st1" width="28.9" height="79.6"/>
			<polygon id="XMLID_1295_" class="st1" points="-3942.4,1301.4 -3975.4,1301.4 -3915,1185.2 -3915,1248.4 			"/>
			<g id="XMLID_1292_">
				<polygon class="st1" points="-3887.6,1301.4 -3854.6,1301.4 -3915,1185.2 -3915,1248.4 				"/>
			</g>
			<rect id="XMLID_1291_" x="-3988.7" y="1294.2" class="st1" width="46.3" height="7.2"/>
			<rect id="XMLID_1290_" x="-3884.8" y="1294.2" class="st1" width="46.3" height="7.2"/>
		</g>
		<g id="XMLID_519_">
			
				<text id="XMLID_528_" transform="matrix(1 0 0 1 -5218.2178 1053.2712)" class="st1" style="font-family:'NexaBold'; font-size:46.0939px;">Américas </text>
			
				<text id="XMLID_527_" transform="matrix(1 0 0 1 -5218.2178 1078.7498)" class="st0" style="font-family:'NexaBold'; font-size:26.1019px;">Imóveis</text>
			<circle id="XMLID_526_" class="st0" cx="-5259" cy="1006.7" r="12.1"/>
			<rect id="XMLID_525_" x="-5271.1" y="1025.1" class="st1" width="24.1" height="66.2"/>
			<polygon id="XMLID_524_" class="st1" points="-5320.1,1091.4 -5347.6,1091.4 -5297.3,994.6 -5297.3,1047.2 			"/>
			<g id="XMLID_522_">
				<polygon class="st1" points="-5274.5,1091.4 -5247,1091.4 -5297.3,994.6 -5297.3,1047.2 				"/>
			</g>
			<rect id="XMLID_521_" x="-5358.6" y="1085.3" class="st1" width="38.6" height="6"/>
			<rect id="XMLID_520_" x="-5272.2" y="1085.3" class="st1" width="38.6" height="6"/>
		</g>
		<g id="XMLID_501_">
			
				<text id="XMLID_518_" transform="matrix(1 0 0 1 -5175.7578 1255.6693)" class="st1" style="font-family:'NexaBold'; font-size:55.3536px;">Américas </text>
			
				<text id="XMLID_517_" transform="matrix(1 0 0 1 -5175.7578 1286.266)" class="st0" style="font-family:'NexaBold'; font-size:31.3454px;">Imóveis</text>
			<circle id="XMLID_516_" class="st0" cx="-5224.8" cy="1199.8" r="14.5"/>
			<rect id="XMLID_511_" x="-5239.2" y="1221.9" class="st1" width="28.9" height="79.6"/>
			<polygon id="XMLID_506_" class="st1" points="-5298.1,1301.4 -5331.1,1301.4 -5270.7,1185.2 -5270.7,1248.4 			"/>
			<g id="XMLID_504_">
				<polygon class="st1" points="-5243.4,1301.4 -5210.3,1301.4 -5270.7,1185.2 -5270.7,1248.4 				"/>
			</g>
			<rect id="XMLID_503_" x="-5344.4" y="1294.2" class="st1" width="46.3" height="7.2"/>
			<rect id="XMLID_502_" x="-5240.5" y="1294.2" class="st1" width="46.3" height="7.2"/>
		</g>
		<g id="XMLID_454_">
			
				<text id="XMLID_463_" transform="matrix(1 0 0 1 -7115.582 1053.2712)" class="st1" style="font-family:'NexaBold'; font-size:46.0939px;">Américas </text>
			
				<text id="XMLID_462_" transform="matrix(1 0 0 1 -7115.582 1078.7498)" class="st0" style="font-family:'NexaBold'; font-size:26.1019px;">Imóveis</text>
			<circle id="XMLID_461_" class="st0" cx="-7156.4" cy="1006.7" r="12.1"/>
			<rect id="XMLID_460_" x="-7168.4" y="1025.1" class="st1" width="24.1" height="66.2"/>
			<polygon id="XMLID_459_" class="st1" points="-7217.5,1091.4 -7245,1091.4 -7194.7,994.6 -7194.7,1047.2 			"/>
			<g id="XMLID_457_">
				<polygon class="st1" points="-7171.9,1091.4 -7144.4,1091.4 -7194.7,994.6 -7194.7,1047.2 				"/>
			</g>
			<rect id="XMLID_456_" x="-7256" y="1085.3" class="st1" width="38.6" height="6"/>
			<rect id="XMLID_455_" x="-7169.5" y="1085.3" class="st1" width="38.6" height="6"/>
		</g>
		<g id="XMLID_444_">
			
				<text id="XMLID_453_" transform="matrix(1 0 0 1 -7073.1216 1255.6693)" class="st1" style="font-family:'NexaBold'; font-size:55.3536px;">Américas </text>
			
				<text id="XMLID_452_" transform="matrix(1 0 0 1 -7073.1216 1286.266)" class="st0" style="font-family:'NexaBold'; font-size:31.3454px;">Imóveis</text>
			<circle id="XMLID_451_" class="st0" cx="-7122.1" cy="1199.8" r="14.5"/>
			<rect id="XMLID_450_" x="-7136.6" y="1221.9" class="st1" width="28.9" height="79.6"/>
			<polygon id="XMLID_449_" class="st1" points="-7195.5,1301.4 -7228.5,1301.4 -7168.1,1185.2 -7168.1,1248.4 			"/>
			<g id="XMLID_447_">
				<polygon class="st1" points="-7140.7,1301.4 -7107.7,1301.4 -7168.1,1185.2 -7168.1,1248.4 				"/>
			</g>
			<rect id="XMLID_446_" x="-7241.8" y="1294.2" class="st1" width="46.3" height="7.2"/>
			<rect id="XMLID_445_" x="-7137.9" y="1294.2" class="st1" width="46.3" height="7.2"/>
		</g>
	</g>
</g>
<g id="_x30_3_x5F_Marca_x5F_dagua_x5F_logo_x5F_370x278">
	<g id="LOGO">
	</g>
	<g id="AMERICAS">
	</g>
	<g id="Layer_8">
	</g>
</g>
<g id="Layer_19">
</g>
<g id="_x30_1_Logo_Vertical-_Americas_Imoveis_copy">
	<g id="Layer_17">
	</g>
	<g id="LOGO_copy">
		<g id="XMLID_485_">
			<g id="Logo_1_">
				<circle id="XMLID_492_" class="st0" cx="-5470.1" cy="907.3" r="59.5"/>
				<rect id="XMLID_491_" x="-5529.3" y="997.7" class="st1" width="118.4" height="325.8"/>
				<polygon id="XMLID_490_" class="st1" points="-5770.3,1323.5 -5905.6,1323.5 -5658.2,847.8 -5658.2,1106.3 				"/>
				<g id="XMLID_488_">
					<polygon class="st1" points="-5546.2,1323.5 -5410.9,1323.5 -5658.2,847.8 -5658.2,1106.3 					"/>
				</g>
				<rect id="XMLID_487_" x="-5959.9" y="1293.9" class="st1" width="189.6" height="29.6"/>
				<rect id="XMLID_486_" x="-5534.6" y="1293.9" class="st1" width="189.6" height="29.6"/>
			</g>
		</g>
		<g id="XMLID_428_">
			<g id="Logo_3_">
				<circle id="XMLID_435_" class="st0" cx="-7414.2" cy="957.8" r="49"/>
				<rect id="XMLID_434_" x="-7463" y="1032.4" class="st1" width="97.6" height="268.6"/>
				<polygon id="XMLID_433_" class="st1" points="-7661.7,1301 -7773.2,1301 -7569.3,908.8 -7569.3,1121.9 				"/>
				<g id="XMLID_431_">
					<polygon class="st1" points="-7476.9,1301 -7365.4,1301 -7569.3,908.8 -7569.3,1121.9 					"/>
				</g>
				<rect id="XMLID_430_" x="-7817.9" y="1276.6" class="st1" width="156.3" height="24.4"/>
				<rect id="XMLID_429_" x="-7467.3" y="1276.6" class="st1" width="156.3" height="24.4"/>
			</g>
		</g>
		<g id="XMLID_385_">
			<g id="Logo_2_">
				<circle id="XMLID_392_" class="st0" cx="-7399.1" cy="-600.1" r="54.5"/>
				<rect id="XMLID_391_" x="-7453.3" y="-517.2" class="st1" width="108.5" height="298.6"/>
				<polygon id="XMLID_390_" class="st1" points="-7674.2,-218.6 -7798.2,-218.6 -7571.6,-654.6 -7571.6,-417.7 				"/>
				<g id="XMLID_388_">
					<polygon class="st1" points="-7468.9,-218.6 -7344.9,-218.6 -7571.6,-654.6 -7571.6,-417.7 					"/>
				</g>
				<rect id="XMLID_387_" x="-7848" y="-245.8" class="st1" width="173.7" height="27.1"/>
				<rect id="XMLID_386_" x="-7458.2" y="-245.8" class="st1" width="173.7" height="27.1"/>
			</g>
		</g>
	</g>
	<g id="AMERICAS_copy">
		
			<text id="XMLID_484_" transform="matrix(1 0 0 1 -5996.415 1476.3378)" class="st1" style="font-family:'NexaBold'; font-size:155.9378px;">Américas </text>
		
			<text id="XMLID_427_" transform="matrix(1 0 0 1 -7848.0693 1426.9384)" class="st1" style="font-family:'NexaBold'; font-size:128.5487px;">Américas </text>
		
			<text id="XMLID_383_" transform="matrix(1 0 0 1 -7881.4722 -78.5908)" class="st1" style="font-family:'NexaBold'; font-size:142.9109px;">Américas </text>
		<g id="XMLID_397_">
			<g id="XMLID_496_">
				
					<text id="XMLID_497_" transform="matrix(1 0 0 1 -7760.4854 26.6525)" class="st0" style="font-family:'NexaBold'; font-size:108.9434px;">Imóveis</text>
			</g>
		</g>
	</g>
	<g id="Layer_8_copy">
		<g id="XMLID_478_">
			<g id="XMLID_479_">
				
					<text id="XMLID_480_" transform="matrix(1 0 0 1 -5864.3945 1591.1747)" class="st0" style="font-family:'NexaBold'; font-size:118.8741px;">Imóveis</text>
			</g>
		</g>
		<g id="XMLID_421_">
			<g id="XMLID_422_">
				
					<text id="XMLID_423_" transform="matrix(1 0 0 1 -7739.2412 1521.6053)" class="st0" style="font-family:'NexaBold'; font-size:97.9949px;">Imóveis</text>
			</g>
		</g>
		<text transform="matrix(1 0 0 1 -7776.3242 664.1854)"><tspan x="0" y="0" class="st4" style="font-family:'ArialMT'; font-size:266.4581px;">ZAP</tspan><tspan x="95.1" y="120" class="st4" style="font-family:'ArialMT'; font-size:100px;">110x65</tspan></text>
		<text transform="matrix(1 0 0 1 -5914.8662 664.1854)"><tspan x="0" y="0" class="st4" style="font-family:'ArialMT'; font-size:266.4581px;">OLX</tspan><tspan x="74.7" y="120" class="st4" style="font-family:'ArialMT'; font-size:100px;">350x260</tspan></text>
	</g>
</g>
<g id="Layer_13" class="st2">
</g>
<g id="TEXTS" class="st2">
	
		<text id="XMLID_897_" transform="matrix(1 0 0 1 -4795.9751 816.3589)" style="display:inline;fill:#F1F2F2; font-family:'MyriadPro-Regular'; font-size:396.1013px;">MIDIAS</text>
	
		<text id="XMLID_1273_" transform="matrix(1 0 0 1 -4835.9746 974.5957)" style="display:inline;fill:#F1F2F2; font-family:'MyriadPro-Regular'; font-size:131.1533px;">370x278</text>
	<g id="XMLID_1781_" class="st3">
		<path id="XMLID_1782_" class="st4" d="M-3914.7,1162.7c0-6.6,3.9-11.3,10.4-14l-0.1-0.2c-5.8-2.7-8.3-7.3-8.3-11.8
			c0-8.3,7-13.9,16.2-13.9c10.2,0,15.2,6.4,15.2,12.9c0,4.4-2.2,9.2-8.6,12.2v0.2c6.5,2.6,10.6,7.2,10.6,13.5
			c0,9.1-7.8,15.2-17.8,15.2C-3908.1,1176.9-3914.7,1170.3-3914.7,1162.7z M-3886.5,1162.4c0-6.4-4.4-9.4-11.5-11.4
			c-6.1,1.8-9.4,5.8-9.4,10.8c-0.2,5.3,3.8,10,10.5,10C-3890.6,1171.7-3886.5,1167.8-3886.5,1162.4z M-3906,1136.2
			c0,5.2,3.9,8.1,10,9.7c4.5-1.5,8-4.8,8-9.5c0-4.2-2.5-8.5-8.9-8.5C-3902.8,1127.8-3906,1131.7-3906,1136.2z"/>
		<path id="XMLID_1786_" class="st4" d="M-3837.9,1149.2c0,17.8-6.6,27.6-18.2,27.6c-10.2,0-17.2-9.6-17.3-26.9
			c0-17.6,7.6-27.2,18.2-27.2C-3844.2,1122.7-3837.9,1132.5-3837.9,1149.2z M-3866.3,1150c0,13.6,4.2,21.4,10.6,21.4
			c7.3,0,10.7-8.5,10.7-21.8c0-12.9-3.3-21.4-10.6-21.4C-3861.8,1128.2-3866.3,1135.8-3866.3,1150z"/>
		<path id="XMLID_1789_" class="st4" d="M-3796.6,1149.2c0,17.8-6.6,27.6-18.2,27.6c-10.2,0-17.2-9.6-17.3-26.9
			c0-17.6,7.6-27.2,18.2-27.2C-3802.8,1122.7-3796.6,1132.5-3796.6,1149.2z M-3825,1150c0,13.6,4.2,21.4,10.6,21.4
			c7.3,0,10.7-8.5,10.7-21.8c0-12.9-3.3-21.4-10.6-21.4C-3820.5,1128.2-3825,1135.8-3825,1150z"/>
		<path id="XMLID_1792_" class="st4" d="M-3784.5,1137l5.6,8.4c1.5,2.2,2.7,4.2,3.9,6.4h0.2c1.3-2.3,2.6-4.4,3.9-6.4l5.5-8.3h7.7
			l-13.3,18.9l13.7,20.1h-8.1l-5.7-8.8c-1.5-2.3-2.8-4.4-4.2-6.8h-0.2c-1.3,2.3-2.7,4.4-4.1,6.8l-5.6,8.8h-7.8l13.9-19.9l-13.2-19.1
			H-3784.5z"/>
		<path id="XMLID_1794_" class="st4" d="M-3737.3,1130.2h-0.2l-9.1,4.9l-1.4-5.4l11.4-6.1h6v52.4h-6.9V1130.2z"/>
		<path id="XMLID_1796_" class="st4" d="M-3676.6,1149.2c0,17.8-6.6,27.6-18.2,27.6c-10.2,0-17.2-9.6-17.3-26.9
			c0-17.6,7.6-27.2,18.2-27.2C-3682.9,1122.7-3676.6,1132.5-3676.6,1149.2z M-3705,1150c0,13.6,4.2,21.4,10.6,21.4
			c7.3,0,10.7-8.5,10.7-21.8c0-12.9-3.3-21.4-10.6-21.4C-3700.5,1128.2-3705,1135.8-3705,1150z"/>
		<path id="XMLID_1799_" class="st4" d="M-3635.2,1149.2c0,17.8-6.6,27.6-18.2,27.6c-10.2,0-17.2-9.6-17.3-26.9
			c0-17.6,7.6-27.2,18.2-27.2C-3641.5,1122.7-3635.2,1132.5-3635.2,1149.2z M-3663.7,1150c0,13.6,4.2,21.4,10.6,21.4
			c7.3,0,10.7-8.5,10.7-21.8c0-12.9-3.3-21.4-10.6-21.4C-3659.2,1128.2-3663.7,1135.8-3663.7,1150z"/>
	</g>
	
		<text id="XMLID_1197_" transform="matrix(1 0 0 1 -4057.1582 974.5957)" style="display:inline;fill:#F1F2F2; font-family:'MyriadPro-Regular'; font-size:131.1533px;">700x100</text>
	
		<text id="XMLID_477_" transform="matrix(1 0 0 1 -6151.7041 816.3589)" style="display:inline;fill:#F1F2F2; font-family:'MyriadPro-Regular'; font-size:396.1013px;">MIDIAS</text>
	
		<text id="XMLID_476_" transform="matrix(1 0 0 1 -6191.7036 974.5957)" style="display:inline;fill:#F1F2F2; font-family:'MyriadPro-Regular'; font-size:131.1533px;">370x278</text>
	<g id="XMLID_425_" class="st3">
		<path id="XMLID_472_" class="st4" d="M-5270.4,1162.7c0-6.6,3.9-11.3,10.4-14l-0.1-0.2c-5.8-2.7-8.3-7.3-8.3-11.8
			c0-8.3,7-13.9,16.2-13.9c10.2,0,15.2,6.4,15.2,12.9c0,4.4-2.2,9.2-8.6,12.2v0.2c6.5,2.6,10.6,7.2,10.6,13.5
			c0,9.1-7.8,15.2-17.8,15.2C-5263.8,1176.9-5270.4,1170.3-5270.4,1162.7z M-5242.2,1162.4c0-6.4-4.4-9.4-11.5-11.4
			c-6.1,1.8-9.4,5.8-9.4,10.8c-0.2,5.3,3.8,10,10.5,10C-5246.3,1171.7-5242.2,1167.8-5242.2,1162.4z M-5261.7,1136.2
			c0,5.2,3.9,8.1,10,9.7c4.5-1.5,8-4.8,8-9.5c0-4.2-2.5-8.5-8.9-8.5C-5258.5,1127.8-5261.7,1131.7-5261.7,1136.2z"/>
		<path id="XMLID_469_" class="st4" d="M-5193.6,1149.2c0,17.8-6.6,27.6-18.2,27.6c-10.2,0-17.2-9.6-17.3-26.9
			c0-17.6,7.6-27.2,18.2-27.2C-5199.9,1122.7-5193.6,1132.5-5193.6,1149.2z M-5222.1,1150c0,13.6,4.2,21.4,10.6,21.4
			c7.3,0,10.7-8.5,10.7-21.8c0-12.9-3.3-21.4-10.6-21.4C-5217.6,1128.2-5222.1,1135.8-5222.1,1150z"/>
		<path id="XMLID_465_" class="st4" d="M-5152.3,1149.2c0,17.8-6.6,27.6-18.2,27.6c-10.2,0-17.2-9.6-17.3-26.9
			c0-17.6,7.6-27.2,18.2-27.2C-5158.6,1122.7-5152.3,1132.5-5152.3,1149.2z M-5180.7,1150c0,13.6,4.2,21.4,10.6,21.4
			c7.3,0,10.7-8.5,10.7-21.8c0-12.9-3.3-21.4-10.6-21.4C-5176.2,1128.2-5180.7,1135.8-5180.7,1150z"/>
		<path id="XMLID_443_" class="st4" d="M-5140.2,1137l5.6,8.4c1.5,2.2,2.7,4.2,3.9,6.4h0.2c1.3-2.3,2.6-4.4,3.9-6.4l5.5-8.3h7.7
			l-13.3,18.9l13.7,20.1h-8.1l-5.7-8.8c-1.5-2.3-2.8-4.4-4.2-6.8h-0.2c-1.3,2.3-2.7,4.4-4.1,6.8l-5.6,8.8h-7.8l13.9-19.9l-13.2-19.1
			H-5140.2z"/>
		<path id="XMLID_441_" class="st4" d="M-5093.1,1130.2h-0.2l-9.1,4.9l-1.4-5.4l11.4-6.1h6v52.4h-6.9V1130.2z"/>
		<path id="XMLID_438_" class="st4" d="M-5032.3,1149.2c0,17.8-6.6,27.6-18.2,27.6c-10.2,0-17.2-9.6-17.3-26.9
			c0-17.6,7.6-27.2,18.2-27.2C-5038.6,1122.7-5032.3,1132.5-5032.3,1149.2z M-5060.7,1150c0,13.6,4.2,21.4,10.6,21.4
			c7.3,0,10.7-8.5,10.7-21.8c0-12.9-3.3-21.4-10.6-21.4C-5056.2,1128.2-5060.7,1135.8-5060.7,1150z"/>
		<path id="XMLID_426_" class="st4" d="M-4991,1149.2c0,17.8-6.6,27.6-18.2,27.6c-10.2,0-17.2-9.6-17.3-26.9
			c0-17.6,7.6-27.2,18.2-27.2C-4997.2,1122.7-4991,1132.5-4991,1149.2z M-5019.4,1150c0,13.6,4.2,21.4,10.6,21.4
			c7.3,0,10.7-8.5,10.7-21.8c0-12.9-3.3-21.4-10.6-21.4C-5014.9,1128.2-5019.4,1135.8-5019.4,1150z"/>
	</g>
	
		<text id="XMLID_424_" transform="matrix(1 0 0 1 -5412.8867 974.5957)" style="display:inline;fill:#F1F2F2; font-family:'MyriadPro-Regular'; font-size:131.1533px;">700x100</text>
	
		<text id="XMLID_420_" transform="matrix(1 0 0 1 -8049.0679 816.3589)" style="display:inline;fill:#F1F2F2; font-family:'MyriadPro-Regular'; font-size:396.1013px;">MIDIAS</text>
	
		<text id="XMLID_419_" transform="matrix(1 0 0 1 -8089.0679 974.5957)" style="display:inline;fill:#F1F2F2; font-family:'MyriadPro-Regular'; font-size:131.1533px;">370x278</text>
	<g id="XMLID_398_" class="st3">
		<path id="XMLID_415_" class="st4" d="M-7167.8,1162.7c0-6.6,3.9-11.3,10.4-14l-0.1-0.2c-5.8-2.7-8.3-7.3-8.3-11.8
			c0-8.3,7-13.9,16.2-13.9c10.2,0,15.2,6.4,15.2,12.9c0,4.4-2.2,9.2-8.6,12.2v0.2c6.5,2.6,10.6,7.2,10.6,13.5
			c0,9.1-7.8,15.2-17.8,15.2C-7161.2,1176.9-7167.8,1170.3-7167.8,1162.7z M-7139.6,1162.4c0-6.4-4.4-9.4-11.5-11.4
			c-6.1,1.8-9.4,5.8-9.4,10.8c-0.2,5.3,3.8,10,10.5,10C-7143.7,1171.7-7139.6,1167.8-7139.6,1162.4z M-7159.1,1136.2
			c0,5.2,3.9,8.1,10,9.7c4.5-1.5,8-4.8,8-9.5c0-4.2-2.5-8.5-8.9-8.5C-7155.9,1127.8-7159.1,1131.7-7159.1,1136.2z"/>
		<path id="XMLID_412_" class="st4" d="M-7091,1149.2c0,17.8-6.6,27.6-18.2,27.6c-10.2,0-17.2-9.6-17.3-26.9
			c0-17.6,7.6-27.2,18.2-27.2C-7097.3,1122.7-7091,1132.5-7091,1149.2z M-7119.4,1150c0,13.6,4.2,21.4,10.6,21.4
			c7.3,0,10.7-8.5,10.7-21.8c0-12.9-3.3-21.4-10.6-21.4C-7114.9,1128.2-7119.4,1135.8-7119.4,1150z"/>
		<path id="XMLID_409_" class="st4" d="M-7049.6,1149.2c0,17.8-6.6,27.6-18.2,27.6c-10.2,0-17.2-9.6-17.3-26.9
			c0-17.6,7.6-27.2,18.2-27.2C-7055.9,1122.7-7049.6,1132.5-7049.6,1149.2z M-7078.1,1150c0,13.6,4.2,21.4,10.6,21.4
			c7.3,0,10.7-8.5,10.7-21.8c0-12.9-3.3-21.4-10.6-21.4C-7073.6,1128.2-7078.1,1135.8-7078.1,1150z"/>
		<path id="XMLID_407_" class="st4" d="M-7037.6,1137l5.6,8.4c1.5,2.2,2.7,4.2,3.9,6.4h0.2c1.3-2.3,2.6-4.4,3.9-6.4l5.5-8.3h7.7
			l-13.3,18.9l13.7,20.1h-8.1l-5.7-8.8c-1.5-2.3-2.8-4.4-4.2-6.8h-0.2c-1.3,2.3-2.7,4.4-4.1,6.8l-5.6,8.8h-7.8l13.9-19.9l-13.2-19.1
			H-7037.6z"/>
		<path id="XMLID_405_" class="st4" d="M-6990.4,1130.2h-0.2l-9.1,4.9l-1.4-5.4l11.4-6.1h6v52.4h-6.9V1130.2z"/>
		<path id="XMLID_402_" class="st4" d="M-6929.7,1149.2c0,17.8-6.6,27.6-18.2,27.6c-10.2,0-17.2-9.6-17.3-26.9
			c0-17.6,7.6-27.2,18.2-27.2C-6935.9,1122.7-6929.7,1132.5-6929.7,1149.2z M-6958.1,1150c0,13.6,4.2,21.4,10.6,21.4
			c7.3,0,10.7-8.5,10.7-21.8c0-12.9-3.3-21.4-10.6-21.4C-6953.6,1128.2-6958.1,1135.8-6958.1,1150z"/>
		<path id="XMLID_399_" class="st4" d="M-6888.3,1149.2c0,17.8-6.6,27.6-18.2,27.6c-10.2,0-17.2-9.6-17.3-26.9
			c0-17.6,7.6-27.2,18.2-27.2C-6894.6,1122.7-6888.3,1132.5-6888.3,1149.2z M-6916.8,1150c0,13.6,4.2,21.4,10.6,21.4
			c7.3,0,10.7-8.5,10.7-21.8c0-12.9-3.3-21.4-10.6-21.4C-6912.3,1128.2-6916.8,1135.8-6916.8,1150z"/>
	</g>
	
		<text id="XMLID_394_" transform="matrix(1 0 0 1 -7310.2515 974.5957)" style="display:inline;fill:#F1F2F2; font-family:'MyriadPro-Regular'; font-size:131.1533px;">700x100</text>
</g>
<g id="Layer_20">
	<rect x="-8126" y="936.9" class="st1" width="365.5" height="125.3"/>
	<g id="XMLID_376_">
		<g>
			<path class="st5" d="M-8030.1,1006.6c0,14.7-9.4,25.5-25.1,25.5c-14.6,0-25-8.7-25-24.8h10.6c0,9.8,4.7,14.7,14.4,14.7
				c9.8,0,14.3-6.8,14.3-15.4v-22.7h-17.2v-10c9.3,0,18.6,0,27.9,0V1006.6z"/>
			<path class="st5" d="M-8021.2,999.8h30.1v9.1h-30.1V999.8z"/>
			<path class="st5" d="M-7980.6,1030.9l23.3-46.8h-27.8v-10.3h41.9l0.6,5.7l-25.6,51.3H-7980.6z"/>
			<path class="st5" d="M-7934.2,1030.9l23.3-46.8h-27.8v-10.3h41.9l0.6,5.7l-25.6,51.3H-7934.2z"/>
			<path class="st5" d="M-7891.4,998.3c0-34,50-34,50,0v8.2c0,34-50,34-50,0V998.3z M-7880.8,1006.5c0,20.7,28.7,20.7,28.7,0v-8.2
				c0-20.4-28.7-20.6-28.7,0V1006.5z"/>
			<path class="st5" d="M-7834.8,998.3c0-34,50-34,50,0v8.2c0,34-50,34-50,0V998.3z M-7824.1,1006.5c0,20.7,28.7,20.7,28.7,0v-8.2
				c0-20.4-28.7-20.6-28.7,0V1006.5z"/>
		</g>
	</g>
	<rect x="-6200.3" y="904.8" class="st1" width="331.2" height="113.5"/>
	<g id="XMLID_381_">
		<g>
			<path class="st5" d="M-6113.4,967.9c0,13.4-8.5,23.1-22.7,23.1c-13.2,0-22.7-7.9-22.7-22.5h9.6c0,8.9,4.3,13.4,13.1,13.4
				c8.9,0,13-6.1,13-13.9v-20.5h-15.6v-9.1c8.4,0,16.8,0,25.3,0V967.9z"/>
			<path class="st5" d="M-6105.3,961.8h27.2v8.3h-27.2V961.8z"/>
			<path class="st5" d="M-6068.5,990l21.1-42.4h-25.2v-9.3h37.9l0.5,5.2l-23.2,46.5H-6068.5z"/>
			<path class="st5" d="M-6026.5,990l21.1-42.4h-25.2v-9.3h37.9l0.5,5.2l-23.2,46.5H-6026.5z"/>
			<path class="st5" d="M-5987.7,960.4c0-30.9,45.3-30.8,45.3,0v7.4c0,30.8-45.3,30.9-45.3,0V960.4z M-5978.1,967.9
				c0,18.8,26,18.8,26,0v-7.4c0-18.5-26-18.7-26,0V967.9z"/>
			<path class="st5" d="M-5936.4,960.4c0-30.9,45.3-30.8,45.3,0v7.4c0,30.8-45.3,30.9-45.3,0V960.4z M-5926.7,967.9
				c0,18.8,26,18.8,26,0v-7.4c0-18.5-26-18.7-26,0V967.9z"/>
		</g>
	</g>
	<g id="XMLID_377_">
		<g>
			<path class="st1" d="M-7723.8,137.1c-4.1,4.1-9.5,6-15.3,6c-15,0-21.3-10.3-21.4-20.8c-0.1-10.5,6.8-21.2,21.4-21.2
				c5.5,0,10.6,2.1,14.8,6.2l-5.1,4.9c-2.6-2.6-6.2-3.8-9.7-3.8c-9.7,0-13.9,7.2-13.9,14c0,6.7,3.9,13.6,13.9,13.6
				c3.5,0,7.5-1.4,10.1-4.1L-7723.8,137.1z"/>
			<path class="st1" d="M-7683.8,142.2h-9l-11.8-13.5h-7.3v13.5h-7.6v-40.4c6.4,0,12.8,0,19.2,0c9.5,0.1,14.5,6.4,14.5,13.4
				c0,5.5-2.5,11.1-10.2,12.7l12.2,13.8V142.2z M-7711.9,109v12.9h11.6c4.8,0,6.9-3.2,6.9-6.4s-2.1-6.5-6.9-6.5H-7711.9z"/>
			<path class="st1" d="M-7650.7,142.2h-30.2c0-13.4,0-26.9,0-40.3h30.2v7.4h-22.6v9.3h21.8v7.1h-21.8v9.1h22.6V142.2z"/>
			<path class="st1" d="M-7609.3,137.1c-4.1,4.1-9.5,6-15.3,6c-15,0-21.3-10.3-21.4-20.8c-0.1-10.5,6.8-21.2,21.4-21.2
				c5.5,0,10.6,2.1,14.8,6.2l-5.1,4.9c-2.6-2.6-6.2-3.8-9.7-3.8c-9.7,0-13.9,7.2-13.9,14c0,6.7,3.9,13.6,13.9,13.6
				c3.5,0,7.5-1.4,10.1-4.1L-7609.3,137.1z"/>
			<path class="st1" d="M-7604.9,142.2v-40.3h7.5v40.3H-7604.9z"/>
			<path class="st1" d="M-7544.8,125c0,10.4-6.6,18-17.7,18c-10.3,0-17.7-6.2-17.7-17.6h7.5c0,6.9,3.3,10.4,10.2,10.4
				c6.9,0,10.1-4.8,10.1-10.9v-16h-12.1v-7.1c6.6,0,13.1,0,19.8,0V125z"/>
			<path class="st1" d="M-7538.5,120.2h21.2v6.4h-21.2V120.2z"/>
			<path class="st1" d="M-7509.8,142.2l16.5-33.1h-19.6v-7.3h29.6l0.4,4l-18.1,36.3H-7509.8z"/>
			<path class="st1" d="M-7477,142.2l16.5-33.1h-19.6v-7.3h29.6l0.4,4l-18.1,36.3H-7477z"/>
			<path class="st1" d="M-7446.8,119.1c0-24.1,35.4-24,35.4,0v5.8c0,24-35.4,24.1-35.4,0V119.1z M-7439.2,124.9
				c0,14.6,20.3,14.6,20.3,0v-5.8c0-14.4-20.3-14.6-20.3,0V124.9z"/>
			<path class="st1" d="M-7406.7,119.1c0-24.1,35.4-24,35.4,0v5.8c0,24-35.4,24.1-35.4,0V119.1z M-7399.1,124.9
				c0,14.6,20.3,14.6,20.3,0v-5.8c0-14.4-20.3-14.6-20.3,0V124.9z"/>
		</g>
	</g>
	<g>
		<g id="XMLID_541_">
			<g id="Logo_4_">
				<circle id="XMLID_548_" class="st0" cx="-853" cy="-2620.3" r="91.9"/>
				<rect id="XMLID_547_" x="-944.5" y="-2480.4" class="st1" width="183" height="503.6"/>
				<polygon id="XMLID_546_" class="st1" points="-1317.1,-1976.7 -1526.3,-1976.7 -1143.9,-2712.2 -1143.9,-2312.5 				"/>
				<g id="XMLID_544_">
					<polygon class="st1" points="-970.7,-1976.7 -761.5,-1976.7 -1143.9,-2712.2 -1143.9,-2312.5 					"/>
				</g>
				<rect id="XMLID_543_" x="-1610.2" y="-2022.5" class="st1" width="293.1" height="45.7"/>
				<rect id="XMLID_542_" x="-952.7" y="-2022.5" class="st1" width="293.1" height="45.7"/>
			</g>
		</g>
		
			<text id="XMLID_539_" transform="matrix(1 0 0 1 -1666.6748 -1740.4774)" class="st1" style="font-family:'NexaBold'; font-size:241.077px;">Américas </text>
		<g id="XMLID_532_">
			<g id="XMLID_537_">
				
					<text id="XMLID_538_" transform="matrix(1 0 0 1 -1462.582 -1562.9415)" class="st0" style="font-family:'NexaBold'; font-size:183.7772px;">Imóveis</text>
			</g>
		</g>
		<g id="XMLID_499_">
			<g>
				<path class="st1" d="M-1352.3-1436c-5.7,5.7-13.1,8.3-21.1,8.3c-20.7,0-29.4-14.2-29.5-28.7c-0.1-14.6,9.4-29.3,29.5-29.3
					c7.6,0,14.7,2.9,20.4,8.5l-7,6.8c-3.7-3.6-8.6-5.2-13.4-5.2c-13.4,0-19.2,10-19.2,19.3c0.1,9.2,5.4,18.8,19.2,18.8
					c4.8,0,10.3-2,14-5.6L-1352.3-1436z"/>
				<path class="st1" d="M-1297.1-1429h-12.5l-16.2-18.6h-10.1v18.6h-10.5v-55.7c8.8,0,17.7,0.1,26.5,0.1c13.1,0.1,20,8.8,20,18.5
					c0,7.6-3.5,15.3-14.1,17.5l16.8,19V-1429z M-1335.9-1474.9v17.8h16c6.7,0,9.6-4.4,9.6-8.9s-2.9-8.9-9.6-8.9H-1335.9z"/>
				<path class="st1" d="M-1251.3-1429h-41.6c0-18.5,0-37.1,0-55.6h41.6v10.2h-31.2v12.8h30.1v9.8h-30.1v12.6h31.2V-1429z"/>
				<path class="st1" d="M-1194.2-1436c-5.7,5.7-13.1,8.3-21.1,8.3c-20.7,0-29.4-14.2-29.5-28.7c-0.1-14.6,9.4-29.3,29.5-29.3
					c7.6,0,14.7,2.9,20.4,8.5l-7,6.8c-3.7-3.6-8.6-5.2-13.4-5.2c-13.4,0-19.2,10-19.2,19.3c0.1,9.2,5.4,18.8,19.2,18.8
					c4.8,0,10.3-2,14-5.6L-1194.2-1436z"/>
				<path class="st1" d="M-1188.2-1429v-55.6h10.4v55.6H-1188.2z"/>
				<path class="st1" d="M-1105.2-1452.8c0,14.4-9.2,24.9-24.5,24.9c-14.2,0-24.4-8.5-24.4-24.2h10.3c0,9.5,4.6,14.4,14.1,14.4
					c9.5,0,14-6.6,14-15v-22.1h-16.8v-9.8c9.1,0,18.1,0,27.3,0V-1452.8z"/>
				<path class="st1" d="M-1096.5-1459.4h29.3v8.9h-29.3V-1459.4z"/>
				<path class="st1" d="M-1056.9-1429l22.7-45.6h-27.1v-10h40.9l0.6,5.6l-25,50.1H-1056.9z"/>
				<path class="st1" d="M-1011.6-1429l22.7-45.6h-27.1v-10h40.9l0.6,5.6l-25,50.1H-1011.6z"/>
				<path class="st1" d="M-969.9-1460.9c0-33.2,48.8-33.1,48.8,0v8c0,33.1-48.8,33.2-48.8,0V-1460.9z M-959.5-1452.9
					c0,20.2,28,20.2,28,0v-8c0-19.9-28-20.1-28,0V-1452.9z"/>
				<path class="st1" d="M-914.6-1460.9c0-33.2,48.8-33.1,48.8,0v8c0,33.1-48.8,33.2-48.8,0V-1460.9z M-904.2-1452.9
					c0,20.2,28,20.2,28,0v-8c0-19.9-28-20.1-28,0V-1452.9z"/>
			</g>
		</g>
	</g>
	<g id="XMLID_375_">
		<g>
			<path class="st1" d="M-6364.6-1c-4.1,4.1-9.5,6-15.3,6c-15,0-21.3-10.3-21.4-20.8c-0.1-10.5,6.8-21.2,21.4-21.2
				c5.5,0,10.6,2.1,14.8,6.2l-5.1,4.9c-2.6-2.6-6.2-3.8-9.7-3.8c-9.7,0-13.9,7.2-13.9,14c0,6.7,3.9,13.6,13.9,13.6
				c3.5,0,7.5-1.4,10.1-4.1L-6364.6-1z"/>
			<path class="st1" d="M-6324.6,4.1h-9l-11.8-13.5h-7.3V4.1h-7.6v-40.4c6.4,0,12.8,0,19.2,0c9.5,0.1,14.5,6.4,14.5,13.4
				c0,5.5-2.5,11.1-10.2,12.7l12.2,13.8V4.1z M-6352.7-29.1v12.9h11.6c4.8,0,6.9-3.2,6.9-6.4s-2.1-6.5-6.9-6.5H-6352.7z"/>
			<path class="st1" d="M-6291.4,4.1h-30.2c0-13.4,0-26.9,0-40.3h30.2v7.4h-22.6v9.3h21.8v7.1h-21.8v9.1h22.6V4.1z"/>
			<path class="st1" d="M-6250-1c-4.1,4.1-9.5,6-15.3,6c-15,0-21.3-10.3-21.4-20.8c-0.1-10.5,6.8-21.2,21.4-21.2
				c5.5,0,10.6,2.1,14.8,6.2l-5.1,4.9c-2.6-2.6-6.2-3.8-9.7-3.8c-9.7,0-13.9,7.2-13.9,14c0.1,6.7,3.9,13.6,13.9,13.6
				c3.5,0,7.5-1.4,10.1-4.1L-6250-1z"/>
			<path class="st1" d="M-6245.7,4.1v-40.3h7.5V4.1H-6245.7z"/>
			<path class="st1" d="M-6185.6-13.1c0,10.4-6.6,18-17.7,18c-10.3,0-17.7-6.2-17.7-17.6h7.5c0,6.9,3.3,10.4,10.2,10.4
				c6.9,0,10.1-4.8,10.1-10.9v-16h-12.1v-7.1c6.6,0,13.1,0,19.8,0V-13.1z"/>
			<path class="st1" d="M-6179.3-17.9h21.3v6.4h-21.3V-17.9z"/>
			<path class="st1" d="M-6150.6,4.1l16.5-33.1h-19.6v-7.3h29.6l0.4,4l-18.1,36.3H-6150.6z"/>
			<path class="st1" d="M-6117.8,4.1l16.5-33.1h-19.6v-7.3h29.6l0.4,4L-6109,4.1H-6117.8z"/>
			<path class="st1" d="M-6087.5-19c0-24.1,35.4-24,35.4,0v5.8c0,24-35.4,24.1-35.4,0V-19z M-6080-13.2c0,14.6,20.3,14.6,20.3,0V-19
				c0-14.4-20.3-14.6-20.3,0V-13.2z"/>
			<path class="st1" d="M-6047.5-19c0-24.1,35.4-24,35.4,0v5.8c0,24-35.4,24.1-35.4,0V-19z M-6039.9-13.2c0,14.6,20.3,14.6,20.3,0
				V-19c0-14.4-20.3-14.6-20.3,0V-13.2z"/>
		</g>
	</g>
	<g>
		
			<text id="XMLID_535_" transform="matrix(1 0 0 1 -4579.8135 -2127.3125)" class="st1" style="font-family:'NexaBold'; font-size:348.584px;">Américas </text>
		
			<text id="XMLID_534_" transform="matrix(1 0 0 1 -4579.8135 -1934.6317)" class="st0" style="font-family:'NexaBold'; font-size:197.3948px;">Imóveis</text>
		<circle id="XMLID_540_" class="st0" cx="-4888.6" cy="-2479.4" r="91.4"/>
		<rect id="XMLID_536_" x="-4979.6" y="-2340.2" class="st1" width="182" height="501"/>
		<polygon id="XMLID_533_" class="st1" points="-5350.2,-1839.2 -5558.3,-1839.2 -5177.9,-2570.8 -5177.9,-2173.2 		"/>
		<g id="XMLID_531_">
			<polygon class="st1" points="-5005.6,-1839.2 -4797.6,-1839.2 -5177.9,-2570.8 -5177.9,-2173.2 			"/>
		</g>
		<rect id="XMLID_530_" x="-5641.8" y="-1884.7" class="st1" width="291.5" height="45.5"/>
		<rect id="XMLID_529_" x="-4987.7" y="-1884.7" class="st1" width="291.5" height="45.5"/>
		<g id="XMLID_498_">
			<g>
				<path class="st1" d="M-5428.8-1734.2c-6.6,6.5-15.1,9.5-24.3,9.5c-23.8,0-33.9-16.4-33.9-33c-0.1-16.8,10.8-33.8,33.9-33.8
					c8.7,0,16.9,3.3,23.5,9.8l-8,7.8c-4.2-4.1-9.9-6-15.5-6c-15.5,0-22.2,11.5-22.1,22.2c0.1,10.6,6.2,21.7,22.1,21.7
					c5.6,0,11.9-2.3,16.1-6.5L-5428.8-1734.2z"/>
				<path class="st1" d="M-5365.3-1726.2h-14.4l-18.7-21.4h-11.6v21.4h-12.1v-64.1c10.2,0,20.3,0.1,30.5,0.1
					c15.1,0.1,23.1,10.2,23.1,21.2c0,8.8-4,17.6-16.2,20.1l19.4,21.9V-1726.2z M-5409.9-1779v20.5h18.4c7.7,0,11-5.1,11-10.2
					c0-5.1-3.4-10.3-11-10.3H-5409.9z"/>
				<path class="st1" d="M-5312.6-1726.2h-47.9c0-21.3,0-42.7,0-64.1h47.9v11.7h-36v14.8h34.7v11.3h-34.7v14.5h36V-1726.2z"/>
				<path class="st1" d="M-5246.8-1734.2c-6.6,6.5-15.1,9.5-24.3,9.5c-23.8,0-33.9-16.4-33.9-33c-0.1-16.8,10.8-33.8,33.9-33.8
					c8.7,0,16.9,3.3,23.5,9.8l-8,7.8c-4.2-4.1-9.9-6-15.5-6c-15.5,0-22.2,11.5-22.1,22.2c0.1,10.6,6.2,21.7,22.1,21.7
					c5.6,0,11.9-2.3,16.1-6.5L-5246.8-1734.2z"/>
				<path class="st1" d="M-5239.9-1726.2v-64.1h12v64.1H-5239.9z"/>
				<path class="st1" d="M-5144.3-1753.5c0,16.6-10.5,28.6-28.2,28.6c-16.4,0-28.1-9.8-28.1-27.9h11.9c0,11,5.3,16.6,16.2,16.6
					c11,0,16.1-7.6,16.1-17.3v-25.5h-19.3v-11.3c10.4,0,20.8,0,31.4,0V-1753.5z"/>
				<path class="st1" d="M-5134.3-1761.1h33.8v10.2h-33.8V-1761.1z"/>
				<path class="st1" d="M-5088.7-1726.2l26.2-52.5h-31.2v-11.5h47l0.7,6.4l-28.7,57.7H-5088.7z"/>
				<path class="st1" d="M-5036.6-1726.2l26.2-52.5h-31.2v-11.5h47l0.7,6.4l-28.7,57.7H-5036.6z"/>
				<path class="st1" d="M-4988.6-1762.9c0-38.3,56.2-38.2,56.2,0v9.2c0,38.2-56.2,38.3-56.2,0V-1762.9z M-4976.6-1753.6
					c0,23.2,32.2,23.2,32.2,0v-9.2c0-22.9-32.2-23.2-32.2,0V-1753.6z"/>
				<path class="st1" d="M-4924.9-1762.9c0-38.3,56.2-38.2,56.2,0v9.2c0,38.2-56.2,38.3-56.2,0V-1762.9z M-4912.9-1753.6
					c0,23.2,32.2,23.2,32.2,0v-9.2c0-22.9-32.2-23.2-32.2,0V-1753.6z"/>
			</g>
		</g>
	</g>
	<path class="st6" d="M-6997.4,636.9c-3.4,3.3-7.7,4.9-12.5,4.9c-12.2,0-17.4-8.4-17.4-16.9c-0.1-8.6,5.5-17.3,17.4-17.3
		c4.5,0,8.7,1.7,12.1,5l-4.1,4c-2.2-2.1-5.1-3.1-7.9-3.1c-7.9,0-11.4,5.9-11.3,11.4c0,5.4,3.2,11.1,11.3,11.1c2.9,0,6.1-1.2,8.3-3.3
		L-6997.4,636.9z"/>
	<path class="st6" d="M-6964.8,641.1h-7.4l-9.6-11h-6v11h-6.2v-32.9c5.2,0,10.4,0,15.6,0c7.7,0.1,11.8,5.2,11.8,10.9
		c0,4.5-2.1,9-8.3,10.3l9.9,11.2V641.1z M-6987.7,614v10.5h9.4c3.9,0,5.6-2.6,5.6-5.3s-1.7-5.3-5.6-5.3H-6987.7z"/>
	<path class="st6" d="M-6937.8,641.1h-24.6c0-10.9,0-21.9,0-32.8h24.6v6h-18.4v7.6h17.8v5.8h-17.8v7.4h18.4V641.1z"/>
	<path class="st6" d="M-6904.1,636.9c-3.4,3.3-7.7,4.9-12.5,4.9c-12.2,0-17.4-8.4-17.4-16.9c-0.1-8.6,5.5-17.3,17.4-17.3
		c4.5,0,8.7,1.7,12.1,5l-4.1,4c-2.2-2.1-5.1-3.1-7.9-3.1c-7.9,0-11.4,5.9-11.3,11.4c0,5.4,3.2,11.1,11.3,11.1c2.9,0,6.1-1.2,8.3-3.3
		L-6904.1,636.9z"/>
	<path class="st6" d="M-6900.5,641.1v-32.8h6.1v32.8H-6900.5z"/>
	<g>
		<g id="XMLID_378_">
			<g id="XMLID_379_">
				
					<text id="XMLID_380_" transform="matrix(1 0 0 1 -4491.6392 1572.8116)" class="st0" style="font-family:'NexaBold'; font-size:108.9434px;">Imóveis</text>
			</g>
		</g>
		<g>
			<path class="st1" d="M-4524.1,1460.3h-50.3l-8.2,18.1h-19.6l43.1-96.2h19.8l43.1,96.2h-19.8L-4524.1,1460.3z M-4549.2,1402.5
				l-17.9,40.9h35.7L-4549.2,1402.5z"/>
			<path class="st1" d="M-4445.6,1478.5v-36.3c0-8.9-4.7-17-13.9-17c-9.1,0-14.4,8.1-14.4,17v36.3h-16.8v-67.9h15.5l1.2,8.2
				c3.6-6.9,11.4-9.3,17.9-9.3c8.1,0,16.2,3.3,20.1,12.6c6-9.6,13.9-12.4,22.7-12.4c19.2,0,28.7,11.8,28.7,32.2v36.5h-16.8v-36.5
				c0-8.9-3.7-16.5-12.8-16.5s-14.7,7.8-14.7,16.8v36.3H-4445.6z"/>
			<path class="st1" d="M-4300.4,1450.6h-52.9c1.1,8.4,8.4,14.4,20.2,14.4c6.2,0,14.3-2.3,18.1-6.3l10.7,10.6
				c-7.1,7.4-18.8,11-29.1,11c-23.4,0-37.2-14.4-37.2-36.1c0-20.6,14-35.4,36-35.4C-4311.9,1408.7-4297.8,1422.7-4300.4,1450.6z
				 M-4353,1436.7h36.5c-1.1-8.8-8-13.2-17.6-13.2C-4343.1,1423.5-4350.5,1427.9-4353,1436.7z M-4314.8,1380.2h-19.8l-10.2,18.7v0.8
				h14.8l15.1-18.8V1380.2z"/>
			<path class="st1" d="M-4271.9,1410.7l1.2,7.8c5.2-8.4,12.2-9.6,19.1-9.6c7,0,13.7,2.7,17.4,6.5l-7.6,14.6
				c-3.4-2.9-6.6-4.4-12.1-4.4c-8.8,0-16.9,4.7-16.9,17.2v35.7h-16.8v-67.7H-4271.9z"/>
			<path class="st1" d="M-4209.5,1391.6c0,13.1-19.8,13.1-19.8,0C-4229.3,1378.6-4209.5,1378.6-4209.5,1391.6z M-4227.8,1410.4v68
				h16.8v-68H-4227.8z"/>
			<path class="st1" d="M-4137.8,1469.8c-7.8,7.7-16.1,10.7-26.1,10.7c-19.6,0-36-11.8-36-35.9s16.4-35.9,36-35.9
				c9.6,0,17,2.7,24.5,10l-10.6,11.1c-4-3.6-8.9-5.4-13.6-5.4c-11.3,0-19.5,8.2-19.5,20.1c0,12.9,8.8,19.8,19.2,19.8
				c5.4,0,10.7-1.5,14.8-5.6L-4137.8,1469.8z"/>
			<path class="st1" d="M-4076.7,1410.7h16.1v67.7h-15.8l-0.8-9.9c-3.8,8-14.4,11.8-22,12c-20.1,0.1-34.9-12.2-34.9-36
				c0-23.4,15.5-35.6,35.3-35.5c9.1,0,17.7,4.3,21.6,11L-4076.7,1410.7z M-4117.3,1444.5c0,12.9,8.9,20.6,20.1,20.6
				c26.4,0,26.4-41.1,0-41.1C-4108.4,1424-4117.3,1431.6-4117.3,1444.5z"/>
			<path class="st1" d="M-4002.2,1428.7c-4.8-4.5-10.3-6-16.8-6c-8,0-12.4,2.5-12.4,6.7c0,4.4,4,6.9,12.6,7.4
				c12.8,0.8,29,3.7,29,21.7c0,12-9.8,22.3-29.1,22.3c-10.7,0-21.4-1.8-31.3-12.1l8.2-12c4.8,5.4,15.8,9.3,23.4,9.5
				c6.3,0.1,12.2-3.2,12.2-8.1c0-4.7-3.8-6.6-13.5-7.1c-12.8-1-28-5.6-28-21c0-15.7,16.2-21.2,28.6-21.2c10.6,0,18.5,2.1,26.4,8.9
				L-4002.2,1428.7z"/>
		</g>
		<g>
			<circle id="XMLID_495_" class="st0" cx="-4101.9" cy="902.5" r="63.3"/>
			<rect id="XMLID_494_" x="-4164.9" y="998.8" class="st1" width="126" height="346.7"/>
			<polygon id="XMLID_493_" class="st1" points="-4421.4,1345.5 -4565.4,1345.5 -4302.2,839.2 -4302.2,1114.4 			"/>
			<g id="XMLID_482_">
				<polygon class="st1" points="-4182.9,1345.5 -4038.9,1345.5 -4302.2,839.2 -4302.2,1114.4 				"/>
			</g>
			<rect id="XMLID_481_" x="-4623.2" y="1314" class="st1" width="201.8" height="31.5"/>
			<rect id="XMLID_467_" x="-4170.6" y="1314" class="st1" width="201.8" height="31.5"/>
			<g>
				<path class="st1" d="M-4544.3,1285.3c1.2,3.7,0.6,7.4-1.1,10.8c-4.5,8.8-12.5,9.4-18.7,6.3c-6.2-3.2-10.4-10.4-6-19
					c1.7-3.2,4.4-5.6,8.1-6.8l1.3,4.5c-2.3,0.8-4.1,2.5-5.2,4.6c-3,5.7,0,10.4,4,12.4c3.9,2,9.2,1.8,12.2-4c1.1-2.1,1.4-4.8,0.7-7.2
					L-4544.3,1285.3z"/>
				<path class="st1" d="M-4539.1,1257.8c6.1,3.2,8.6,9.4,5.2,15.9c-3.1,6.1-9,8.5-15.7,5.1l2.3-4.4c4.1,2.1,7.1,1.2,9.2-2.8
					c2.1-4.1,0.3-7.4-3.3-9.3l-9.4-4.9l-3.7,7.1l-4.2-2.1c2-3.9,4-7.7,6-11.6L-4539.1,1257.8z"/>
				<path class="st1" d="M-4540,1252.6l6.4-12.5l3.8,2l-6.4,12.5L-4540,1252.6z"/>
				<path class="st1" d="M-4518.4,1242.4l-14.4-19.7l-6,11.5l-4.3-2.2l9-17.4l2.5,1l15.8,21.6L-4518.4,1242.4z"/>
				<path class="st1" d="M-4508.5,1223.1l-14.4-19.7l-6,11.5l-4.3-2.2l9-17.4l2.5,1l15.8,21.6L-4508.5,1223.1z"/>
				<path class="st1" d="M-4512.9,1198.4c-14.1-7.3-3.4-28.1,10.7-20.8l3.4,1.8c14.1,7.3,3.4,28.1-10.7,20.8L-4512.9,1198.4z
					 M-4507.2,1195.7c8.6,4.4,14.7-7.5,6.1-11.9l-3.4-1.8c-8.5-4.4-14.7,7.5-6.1,11.9L-4507.2,1195.7z"/>
				<path class="st1" d="M-4500.7,1174.8c-14.1-7.3-3.4-28.1,10.7-20.8l3.4,1.8c14.1,7.3,3.4,28.1-10.7,20.8L-4500.7,1174.8z
					 M-4495,1172.1c8.6,4.4,14.7-7.5,6.1-11.9l-3.4-1.8c-8.5-4.4-14.7,7.5-6.1,11.9L-4495,1172.1z"/>
			</g>
		</g>
	</g>
	<g>
		<g>
			<g id="XMLID_554_">
				<g id="Logo_5_">
					<circle id="XMLID_561_" class="st0" cx="233.7" cy="-554.9" r="23.1"/>
					<polygon class="st1" points="256.7,-404.8 256.7,-519.8 210.7,-519.8 210.7,-481.7 160.7,-578 70.6,-404.8 43.5,-404.8 
						43.5,-393.3 64.6,-393.3 117.1,-393.3 160.7,-477.6 204.2,-393.3 208.7,-393.3 210.7,-393.3 256.7,-393.3 282.3,-393.3 
						282.3,-404.8 					"/>
				</g>
			</g>
			<g>
				<path class="st1" d="M62.4-341.9H40.2l-3.6,8h-8.7l19-42.4h8.7l19,42.4H66L62.4-341.9z M51.3-367.4l-7.9,18h15.7L51.3-367.4z"/>
				<path class="st1" d="M97-333.9v-16c0-3.9-2.1-7.5-6.1-7.5c-4,0-6.4,3.6-6.4,7.5v16h-7.4v-29.9h6.8l0.5,3.6c1.6-3,5-4.1,7.9-4.1
					c3.6,0,7.1,1.5,8.8,5.6c2.7-4.2,6.1-5.5,10-5.5c8.5,0,12.7,5.2,12.7,14.2v16.1h-7.4V-350c0-3.9-1.6-7.3-5.6-7.3
					c-4,0-6.5,3.5-6.5,7.4v16H97z"/>
				<path class="st1" d="M161-346.2h-23.3c0.5,3.7,3.7,6.4,8.9,6.4c2.7,0,6.3-1,8-2.8l4.7,4.7c-3.1,3.3-8.3,4.8-12.8,4.8
					c-10.3,0-16.4-6.4-16.4-15.9c0-9.1,6.2-15.6,15.9-15.6C155.9-364.7,162.1-358.5,161-346.2z M137.8-352.3h16.1
					c-0.5-3.9-3.5-5.8-7.8-5.8C142.1-358.1,138.9-356.2,137.8-352.3z M154.6-377.2h-8.7l-4.5,8.2v0.4h6.5l6.7-8.3V-377.2z"/>
				<path class="st1" d="M173.5-363.8l0.5,3.5c2.3-3.7,5.4-4.2,8.4-4.2c3.1,0,6.1,1.2,7.7,2.8l-3.3,6.4c-1.5-1.3-2.9-1.9-5.3-1.9
					c-3.9,0-7.4,2.1-7.4,7.6v15.7h-7.4v-29.9H173.5z"/>
				<path class="st1" d="M201-372.2c0,5.8-8.7,5.8-8.7,0C192.3-377.9,201-377.9,201-372.2z M193-363.9v30h7.4v-30H193z"/>
				<path class="st1" d="M232.6-337.7c-3.5,3.4-7.1,4.7-11.5,4.7c-8.7,0-15.9-5.2-15.9-15.8c0-10.6,7.2-15.8,15.9-15.8
					c4.2,0,7.5,1.2,10.8,4.4l-4.7,4.9c-1.8-1.6-3.9-2.4-6-2.4c-5,0-8.6,3.6-8.6,8.8c0,5.7,3.9,8.7,8.5,8.7c2.4,0,4.7-0.7,6.5-2.5
					L232.6-337.7z"/>
				<path class="st1" d="M259.6-363.8h7.1v29.9h-7l-0.4-4.4c-1.7,3.5-6.4,5.2-9.7,5.3c-8.8,0.1-15.4-5.4-15.4-15.9
					c0-10.3,6.8-15.7,15.6-15.6c4,0,7.8,1.9,9.5,4.8L259.6-363.8z M241.7-348.9c0,5.7,3.9,9.1,8.8,9.1c11.6,0,11.6-18.1,0-18.1
					C245.6-357.9,241.7-354.6,241.7-348.9z"/>
				<path class="st1" d="M292.4-355.8c-2.1-2-4.5-2.7-7.4-2.7c-3.5,0-5.5,1.1-5.5,3c0,1.9,1.8,3,5.6,3.3c5.6,0.4,12.8,1.6,12.8,9.6
					c0,5.3-4.3,9.8-12.8,9.8c-4.7,0-9.4-0.8-13.8-5.3l3.6-5.3c2.1,2.4,7,4.1,10.3,4.2c2.8,0.1,5.4-1.4,5.4-3.6
					c0-2.1-1.7-2.9-5.9-3.1c-5.6-0.4-12.4-2.5-12.4-9.3c0-6.9,7.1-9.3,12.6-9.3c4.7,0,8.2,0.9,11.6,3.9L292.4-355.8z"/>
			</g>
			<g id="XMLID_545_">
				<g>
					<path class="st1" d="M108.3-257.4c-1.4,1.4-3.3,2.1-5.3,2.1c-5.2,0-7.4-3.6-7.4-7.2c0-3.7,2.4-7.4,7.4-7.4
						c1.9,0,3.7,0.7,5.1,2.1l-1.8,1.7c-0.9-0.9-2.2-1.3-3.4-1.3c-3.4,0-4.8,2.5-4.8,4.9c0,2.3,1.4,4.7,4.8,4.7
						c1.2,0,2.6-0.5,3.5-1.4L108.3-257.4z"/>
					<path class="st1" d="M122.2-255.7H119l-4.1-4.7h-2.5v4.7h-2.6v-14c2.2,0,4.4,0,6.7,0c3.3,0,5,2.2,5,4.6c0,1.9-0.9,3.9-3.5,4.4
						l4.2,4.8V-255.7z M112.4-267.2v4.5h4c1.7,0,2.4-1.1,2.4-2.2s-0.7-2.2-2.4-2.2H112.4z"/>
					<path class="st1" d="M133.7-255.7h-10.5c0-4.7,0-9.3,0-14h10.5v2.6h-7.9v3.2h7.6v2.5h-7.6v3.2h7.9V-255.7z"/>
					<path class="st1" d="M148-257.4c-1.4,1.4-3.3,2.1-5.3,2.1c-5.2,0-7.4-3.6-7.4-7.2c0-3.7,2.4-7.4,7.4-7.4c1.9,0,3.7,0.7,5.1,2.1
						l-1.8,1.7c-0.9-0.9-2.2-1.3-3.4-1.3c-3.4,0-4.8,2.5-4.8,4.9c0,2.3,1.4,4.7,4.8,4.7c1.2,0,2.6-0.5,3.5-1.4L148-257.4z"/>
					<path class="st1" d="M149.5-255.7v-14h2.6v14H149.5z"/>
					<path class="st1" d="M170.4-261.6c0,3.6-2.3,6.3-6.2,6.3c-3.6,0-6.1-2.1-6.1-6.1h2.6c0,2.4,1.2,3.6,3.5,3.6
						c2.4,0,3.5-1.7,3.5-3.8v-5.6h-4.2v-2.5c2.3,0,4.5,0,6.8,0V-261.6z"/>
					<path class="st1" d="M172.6-263.3h7.4v2.2h-7.4V-263.3z"/>
					<path class="st1" d="M182.5-255.7l5.7-11.5h-6.8v-2.5h10.3l0.1,1.4l-6.3,12.6H182.5z"/>
					<path class="st1" d="M193.9-255.7l5.7-11.5h-6.8v-2.5H203l0.1,1.4l-6.3,12.6H193.9z"/>
					<path class="st1" d="M204.4-263.7c0-8.3,12.3-8.3,12.3,0v2c0,8.3-12.3,8.3-12.3,0V-263.7z M207-261.7c0,5.1,7,5.1,7,0v-2
						c0-5-7-5.1-7,0V-261.7z"/>
					<path class="st1" d="M218.3-263.7c0-8.3,12.3-8.3,12.3,0v2c0,8.3-12.3,8.3-12.3,0V-263.7z M220.9-261.7c0,5.1,7,5.1,7,0v-2
						c0-5-7-5.1-7,0V-261.7z"/>
				</g>
			</g>
		</g>
		<g id="XMLID_550_">
			<g id="XMLID_551_">
				<g>
					<path class="st0" d="M82.9-289.3v-32.3h6v32.3H82.9z"/>
					<path class="st0" d="M109.4-289.3v-12.2c0-3-1.6-5.7-4.7-5.7c-3,0-4.8,2.7-4.8,5.7v12.2h-5.6v-22.8h5.2l0.4,2.8
						c1.2-2.3,3.8-3.1,6-3.1c2.7,0,5.4,1.1,6.7,4.2c2-3.2,4.7-4.2,7.6-4.2c6.5,0,9.6,4,9.6,10.8v12.3h-5.6v-12.3
						c0-3-1.2-5.5-4.3-5.5c-3,0-4.9,2.6-4.9,5.6v12.2H109.4z"/>
					<path class="st0" d="M146.3-312.5c7.2,0,11.9,5.4,11.9,11.9c0,6.6-4.5,11.9-11.9,11.9s-11.8-5.3-11.8-11.9
						C134.6-307.2,139.1-312.5,146.3-312.5z M146.4-307.4c-4.1,0-6.2,3.3-6.2,6.7c0,3.5,2.1,6.7,6.2,6.7c4.1,0,6.2-3.2,6.2-6.7
						C152.6-304.1,150.2-307.4,146.4-307.4z M153.6-321.8H147l-3.4,6.3v0.3h5l5.1-6.3V-321.8z"/>
					<path class="st0" d="M185.2-312.1l-9.7,22.9h-6.1l-9.7-22.9h6.1l3.1,7.5l3.5,9.6l3.5-9.5l3.1-7.6H185.2z"/>
					<path class="st0" d="M192.8-298.7c0.4,2.8,2.8,4.8,6.8,4.8c2.1,0,4.8-0.8,6.1-2.1l3.6,3.6c-2.4,2.5-6.3,3.7-9.8,3.7
						c-7.8,0-12.5-4.8-12.5-12.1c0-6.9,4.7-11.9,12.1-11.9c7.6,0,12.4,4.7,11.5,14.1H192.8z M205.1-303.3c-0.4-3-2.7-4.4-5.9-4.4
						c-3,0-5.5,1.5-6.4,4.4H205.1z"/>
					<path class="st0" d="M221-318.5c0,4.4-6.6,4.4-6.6,0C214.4-322.9,221-322.9,221-318.5z M214.9-312.2v22.9h5.6v-22.9H214.9z"/>
					<path class="st0" d="M240.5-306c-1.6-1.5-3.5-2-5.6-2c-2.7,0-4.2,0.8-4.2,2.3c0,1.5,1.3,2.3,4.2,2.5c4.3,0.3,9.7,1.2,9.7,7.3
						c0,4-3.3,7.5-9.8,7.5c-3.6,0-7.2-0.6-10.5-4.1l2.8-4c1.6,1.8,5.3,3.1,7.8,3.2c2.1,0,4.1-1.1,4.1-2.7c0-1.6-1.3-2.2-4.5-2.4
						c-4.3-0.3-9.4-1.9-9.4-7.1c0-5.3,5.4-7.1,9.6-7.1c3.6,0,6.2,0.7,8.9,3L240.5-306z"/>
				</g>
			</g>
		</g>
	</g>
	<g>
		<g>
			<g id="XMLID_556_">
				<g id="Logo_6_">
					<circle id="XMLID_557_" class="st0" cx="274.2" cy="511.8" r="32.4"/>
					<polygon class="st1" points="306.5,722.3 306.5,561.1 242,561.1 242,614.5 171.8,479.5 45.6,722.3 7.7,722.3 7.7,738.4 
						37.2,738.4 110.8,738.4 171.8,620.2 232.8,738.4 239.1,738.4 242,738.4 306.5,738.4 342.3,738.4 342.3,722.3 					"/>
				</g>
			</g>
		</g>
	</g>
	<g>
		<g>
			<g id="XMLID_563_">
				<g id="Logo_7_">
					<circle id="XMLID_564_" class="st0" cx="245.8" cy="36.8" r="23.1"/>
					<polygon class="st1" points="268.8,186.9 268.8,71.9 222.8,71.9 222.8,110 172.7,13.7 82.6,186.9 55.6,186.9 55.6,198.4 
						76.7,198.4 129.2,198.4 172.7,114.1 216.3,198.4 220.8,198.4 222.8,198.4 268.8,198.4 294.4,198.4 294.4,186.9 					"/>
				</g>
			</g>
			<g>
				<path class="st1" d="M74.5,249.8H52.3l-3.6,8H40l19-42.4h8.7l19,42.4H78L74.5,249.8z M63.4,224.3l-7.9,18h15.7L63.4,224.3z"/>
				<path class="st1" d="M109,257.8v-16c0-3.9-2.1-7.5-6.1-7.5c-4,0-6.4,3.6-6.4,7.5v16h-7.4v-29.9H96l0.5,3.6c1.6-3,5-4.1,7.9-4.1
					c3.6,0,7.1,1.5,8.8,5.6c2.7-4.2,6.1-5.5,10-5.5c8.5,0,12.7,5.2,12.7,14.2v16.1h-7.4v-16.1c0-3.9-1.6-7.3-5.6-7.3
					c-4,0-6.5,3.5-6.5,7.4v16H109z"/>
				<path class="st1" d="M173.1,245.5h-23.3c0.5,3.7,3.7,6.4,8.9,6.4c2.7,0,6.3-1,8-2.8l4.7,4.7c-3.1,3.3-8.3,4.8-12.8,4.8
					c-10.3,0-16.4-6.4-16.4-15.9c0-9.1,6.2-15.6,15.9-15.6C168,227,174.2,233.2,173.1,245.5z M149.9,239.4H166
					c-0.5-3.9-3.5-5.8-7.8-5.8C154.2,233.6,151,235.5,149.9,239.4z M166.7,214.5H158l-4.5,8.2v0.4h6.5l6.7-8.3V214.5z"/>
				<path class="st1" d="M185.6,227.9l0.5,3.5c2.3-3.7,5.4-4.2,8.4-4.2c3.1,0,6.1,1.2,7.7,2.8l-3.3,6.4c-1.5-1.3-2.9-1.9-5.3-1.9
					c-3.9,0-7.4,2.1-7.4,7.6v15.7h-7.4v-29.9H185.6z"/>
				<path class="st1" d="M213.1,219.5c0,5.8-8.7,5.8-8.7,0C204.4,213.7,213.1,213.7,213.1,219.5z M205,227.8v30h7.4v-30H205z"/>
				<path class="st1" d="M244.7,254c-3.5,3.4-7.1,4.7-11.5,4.7c-8.7,0-15.9-5.2-15.9-15.8c0-10.6,7.2-15.8,15.9-15.8
					c4.2,0,7.5,1.2,10.8,4.4l-4.7,4.9c-1.8-1.6-3.9-2.4-6-2.4c-5,0-8.6,3.6-8.6,8.8c0,5.7,3.9,8.7,8.5,8.7c2.4,0,4.7-0.7,6.5-2.5
					L244.7,254z"/>
				<path class="st1" d="M271.7,227.9h7.1v29.9h-7l-0.4-4.4c-1.7,3.5-6.4,5.2-9.7,5.3c-8.8,0.1-15.4-5.4-15.4-15.9
					c0-10.3,6.8-15.7,15.6-15.6c4,0,7.8,1.9,9.5,4.8L271.7,227.9z M253.7,242.8c0,5.7,3.9,9.1,8.8,9.1c11.6,0,11.6-18.1,0-18.1
					C257.7,233.8,253.7,237.1,253.7,242.8z"/>
				<path class="st1" d="M304.5,235.9c-2.1-2-4.5-2.7-7.4-2.7c-3.5,0-5.5,1.1-5.5,3c0,1.9,1.8,3,5.6,3.3c5.6,0.4,12.8,1.6,12.8,9.6
					c0,5.3-4.3,9.8-12.8,9.8c-4.7,0-9.4-0.8-13.8-5.3l3.6-5.3c2.1,2.4,7,4.1,10.3,4.2c2.8,0.1,5.4-1.4,5.4-3.6
					c0-2.1-1.7-2.9-5.9-3.1c-5.6-0.4-12.4-2.5-12.4-9.3c0-6.9,7.1-9.3,12.6-9.3c4.7,0,8.2,0.9,11.6,3.9L304.5,235.9z"/>
			</g>
			<g id="XMLID_562_">
				<g>
					<path class="st1" d="M120.4,334.3c-1.4,1.4-3.3,2.1-5.3,2.1c-5.2,0-7.4-3.6-7.4-7.2c0-3.7,2.4-7.4,7.4-7.4
						c1.9,0,3.7,0.7,5.1,2.1l-1.8,1.7c-0.9-0.9-2.2-1.3-3.4-1.3c-3.4,0-4.8,2.5-4.8,4.9c0,2.3,1.4,4.7,4.8,4.7
						c1.2,0,2.6-0.5,3.5-1.4L120.4,334.3z"/>
					<path class="st1" d="M134.2,336h-3.1l-4.1-4.7h-2.5v4.7h-2.6v-14c2.2,0,4.4,0,6.7,0c3.3,0,5,2.2,5,4.6c0,1.9-0.9,3.9-3.5,4.4
						l4.2,4.8V336z M124.5,324.5v4.5h4c1.7,0,2.4-1.1,2.4-2.2s-0.7-2.2-2.4-2.2H124.5z"/>
					<path class="st1" d="M145.7,336h-10.5c0-4.7,0-9.3,0-14h10.5v2.6h-7.9v3.2h7.6v2.5h-7.6v3.2h7.9V336z"/>
					<path class="st1" d="M160.1,334.3c-1.4,1.4-3.3,2.1-5.3,2.1c-5.2,0-7.4-3.6-7.4-7.2c0-3.7,2.4-7.4,7.4-7.4
						c1.9,0,3.7,0.7,5.1,2.1l-1.8,1.7c-0.9-0.9-2.2-1.3-3.4-1.3c-3.4,0-4.8,2.5-4.8,4.9c0,2.3,1.4,4.7,4.8,4.7
						c1.2,0,2.6-0.5,3.5-1.4L160.1,334.3z"/>
					<path class="st1" d="M161.6,336v-14h2.6v14H161.6z"/>
					<path class="st1" d="M182.5,330.1c0,3.6-2.3,6.3-6.2,6.3c-3.6,0-6.1-2.1-6.1-6.1h2.6c0,2.4,1.2,3.6,3.5,3.6
						c2.4,0,3.5-1.7,3.5-3.8v-5.6h-4.2V322c2.3,0,4.5,0,6.8,0V330.1z"/>
					<path class="st1" d="M184.6,328.4h7.4v2.2h-7.4V328.4z"/>
					<path class="st1" d="M194.6,336l5.7-11.5h-6.8V322h10.3l0.1,1.4l-6.3,12.6H194.6z"/>
					<path class="st1" d="M206,336l5.7-11.5h-6.8V322h10.3l0.1,1.4L209,336H206z"/>
					<path class="st1" d="M216.4,328c0-8.3,12.3-8.3,12.3,0v2c0,8.3-12.3,8.3-12.3,0V328z M219.1,330c0,5.1,7,5.1,7,0v-2
						c0-5-7-5.1-7,0V330z"/>
					<path class="st1" d="M230.3,328c0-8.3,12.3-8.3,12.3,0v2c0,8.3-12.3,8.3-12.3,0V328z M233,330c0,5.1,7,5.1,7,0v-2
						c0-5-7-5.1-7,0V330z"/>
				</g>
			</g>
		</g>
		<g id="XMLID_559_">
			<g id="XMLID_560_">
				<g>
					<path class="st0" d="M95,302.4v-32.3h6v32.3H95z"/>
					<path class="st0" d="M121.5,302.4v-12.2c0-3-1.6-5.7-4.7-5.7c-3,0-4.8,2.7-4.8,5.7v12.2h-5.6v-22.8h5.2l0.4,2.8
						c1.2-2.3,3.8-3.1,6-3.1c2.7,0,5.4,1.1,6.7,4.2c2-3.2,4.7-4.2,7.6-4.2c6.5,0,9.6,4,9.6,10.8v12.3h-5.6v-12.3
						c0-3-1.2-5.5-4.3-5.5c-3,0-4.9,2.6-4.9,5.6v12.2H121.5z"/>
					<path class="st0" d="M158.4,279.2c7.2,0,11.9,5.4,11.9,11.9c0,6.6-4.5,11.9-11.9,11.9s-11.8-5.3-11.8-11.9
						C146.6,284.5,151.2,279.2,158.4,279.2z M158.5,284.3c-4.1,0-6.2,3.3-6.2,6.7c0,3.5,2.1,6.7,6.2,6.7c4.1,0,6.2-3.2,6.2-6.7
						C164.6,287.6,162.2,284.3,158.5,284.3z M165.7,269.9h-6.6l-3.4,6.3v0.3h5l5.1-6.3V269.9z"/>
					<path class="st0" d="M197.3,279.6l-9.7,22.9h-6.1l-9.7-22.9h6.1l3.1,7.5l3.5,9.6l3.5-9.5l3.1-7.6H197.3z"/>
					<path class="st0" d="M204.9,293c0.4,2.8,2.8,4.8,6.8,4.8c2.1,0,4.8-0.8,6.1-2.1l3.6,3.6c-2.4,2.5-6.3,3.7-9.8,3.7
						c-7.8,0-12.5-4.8-12.5-12.1c0-6.9,4.7-11.9,12.1-11.9c7.6,0,12.4,4.7,11.5,14.1H204.9z M217.2,288.4c-0.4-3-2.7-4.4-5.9-4.4
						c-3,0-5.5,1.5-6.4,4.4H217.2z"/>
					<path class="st0" d="M233.1,273.2c0,4.4-6.6,4.4-6.6,0C226.5,268.8,233.1,268.8,233.1,273.2z M227,279.5v22.9h5.6v-22.9H227z"
						/>
					<path class="st0" d="M252.6,285.7c-1.6-1.5-3.5-2-5.6-2c-2.7,0-4.2,0.8-4.2,2.3c0,1.5,1.3,2.3,4.2,2.5c4.3,0.3,9.7,1.2,9.7,7.3
						c0,4-3.3,7.5-9.8,7.5c-3.6,0-7.2-0.6-10.5-4.1l2.8-4c1.6,1.8,5.3,3.1,7.8,3.2c2.1,0,4.1-1.1,4.1-2.7c0-1.6-1.3-2.2-4.5-2.4
						c-4.3-0.3-9.4-1.9-9.4-7.1c0-5.3,5.4-7.1,9.6-7.1c3.6,0,6.2,0.7,8.9,3L252.6,285.7z"/>
				</g>
			</g>
		</g>
	</g>
</g>
<g id="Layer_21">
	<g>
		<g>
			<path class="st1" d="M1116,167.7h-36.4l-6,13.1h-14.2l31.2-69.6h14.3l31.2,69.6h-14.3L1116,167.7z M1097.8,125.9l-12.9,29.6h25.8
				L1097.8,125.9z"/>
			<path class="st1" d="M1172.7,180.8v-26.2c0-6.5-3.4-12.3-10-12.3c-6.6,0-10.4,5.9-10.4,12.3v26.2h-12.1v-49.1h11.2l0.9,6
				c2.6-5,8.3-6.8,12.9-6.8c5.9,0,11.7,2.4,14.5,9.1c4.4-7,10-8.9,16.4-8.9c13.9,0,20.8,8.5,20.8,23.3v26.4h-12.1v-26.4
				c0-6.5-2.7-11.9-9.2-11.9s-10.6,5.7-10.6,12.1v26.2H1172.7z"/>
			<path class="st1" d="M1277.8,160.7h-38.3c0.8,6.1,6.1,10.4,14.6,10.4c4.5,0,10.3-1.7,13.1-4.6l7.8,7.7c-5.2,5.4-13.6,8-21.1,8
				c-16.9,0-26.9-10.4-26.9-26.1c0-14.9,10.1-25.6,26-25.6C1269.4,130.3,1279.7,140.5,1277.8,160.7z M1239.7,150.6h26.4
				c-0.8-6.4-5.8-9.5-12.7-9.5C1246.9,141.1,1241.5,144.3,1239.7,150.6z M1267.3,109.8H1253l-7.4,13.5v0.6h10.7l10.9-13.6V109.8z"/>
			<path class="st1" d="M1298.4,131.8l0.9,5.7c3.8-6.1,8.8-7,13.8-7c5.1,0,9.9,2,12.6,4.7l-5.5,10.5c-2.5-2.1-4.8-3.2-8.7-3.2
				c-6.4,0-12.2,3.4-12.2,12.4v25.8h-12.1v-49H1298.4z"/>
			<path class="st1" d="M1343.5,118c0,9.4-14.3,9.4-14.3,0S1343.5,108.6,1343.5,118z M1330.3,131.6v49.2h12.1v-49.2H1330.3z"/>
			<path class="st1" d="M1395.4,174.6c-5.7,5.6-11.6,7.8-18.9,7.8c-14.2,0-26-8.5-26-25.9c0-17.4,11.8-25.9,26-25.9
				c7,0,12.3,2,17.7,7.3l-7.7,8.1c-2.9-2.6-6.5-3.9-9.8-3.9c-8.2,0-14.1,6-14.1,14.5c0,9.3,6.4,14.3,13.9,14.3
				c3.9,0,7.8-1.1,10.7-4.1L1395.4,174.6z"/>
			<path class="st1" d="M1439.6,131.8h11.6v49h-11.4l-0.6-7.2c-2.8,5.8-10.4,8.5-15.9,8.6c-14.5,0.1-25.2-8.8-25.2-26
				c0-16.9,11.2-25.7,25.5-25.6c6.6,0,12.8,3.1,15.6,8L1439.6,131.8z M1410.2,156.3c0,9.3,6.5,14.9,14.5,14.9
				c19.1,0,19.1-29.7,0-29.7C1416.6,141.5,1410.2,146.9,1410.2,156.3z"/>
			<path class="st1" d="M1493.5,144.8c-3.5-3.3-7.5-4.4-12.1-4.4c-5.8,0-8.9,1.8-8.9,4.9c0,3.2,2.9,5,9.1,5.4
				c9.2,0.6,21,2.7,21,15.7c0,8.6-7.1,16.1-21.1,16.1c-7.8,0-15.5-1.3-22.7-8.7l6-8.6c3.5,3.9,11.4,6.8,16.9,6.9
				c4.6,0.1,8.8-2.3,8.8-5.9c0-3.4-2.8-4.8-9.7-5.2c-9.2-0.7-20.3-4.1-20.3-15.2c0-11.3,11.7-15.3,20.7-15.3
				c7.7,0,13.4,1.5,19.1,6.5L1493.5,144.8z"/>
		</g>
		<g>
			<path class="st0" d="M1064.5,235.8v-39.4h7.4v39.4H1064.5z"/>
			<path class="st0" d="M1096.8,235.8v-14.9c0-3.7-1.9-7-5.7-7c-3.7,0-5.9,3.3-5.9,7v14.9h-6.9V208h6.4l0.5,3.4
				c1.5-2.8,4.7-3.8,7.3-3.8c3.3,0,6.6,1.4,8.2,5.2c2.5-3.9,5.7-5.1,9.3-5.1c7.9,0,11.8,4.8,11.8,13.2v15h-6.9v-15
				c0-3.7-1.5-6.8-5.2-6.8c-3.7,0-6,3.2-6,6.9v14.9H1096.8z"/>
			<path class="st0" d="M1141.8,207.5c8.8,0,14.5,6.5,14.5,14.5c0,8-5.5,14.5-14.5,14.5c-9,0-14.4-6.5-14.4-14.5
				C1127.5,214,1133,207.5,1141.8,207.5z M1141.9,213.7c-5,0-7.5,4.1-7.5,8.2c0,4.2,2.5,8.2,7.5,8.2c5,0,7.5-3.9,7.5-8.2
				C1149.4,217.8,1146.5,213.7,1141.9,213.7z M1150.7,196.1h-8.1l-4.2,7.7v0.3h6.1l6.2-7.7V196.1z"/>
			<path class="st0" d="M1189.3,208l-11.8,27.9h-7.4l-11.9-27.9h7.5l3.8,9.2l4.3,11.7l4.2-11.6l3.8-9.3H1189.3z"/>
			<path class="st0" d="M1198.5,224.4c0.5,3.4,3.4,5.9,8.3,5.9c2.5,0,5.9-1,7.4-2.6l4.4,4.3c-2.9,3-7.7,4.5-11.9,4.5
				c-9.6,0-15.3-5.9-15.3-14.8c0-8.4,5.7-14.5,14.7-14.5c9.3,0,15.1,5.7,14,17.2H1198.5z M1213.6,218.7c-0.5-3.6-3.3-5.4-7.2-5.4
				c-3.7,0-6.8,1.8-7.8,5.4H1213.6z"/>
			<path class="st0" d="M1232.9,200.2c0,5.3-8.1,5.3-8.1,0C1224.8,194.9,1232.9,194.9,1232.9,200.2z M1225.4,207.9v27.9h6.9v-27.9
				H1225.4z"/>
			<path class="st0" d="M1256.6,215.4c-2-1.9-4.2-2.5-6.9-2.5c-3.3,0-5.1,1-5.1,2.8c0,1.8,1.6,2.8,5.2,3c5.2,0.3,11.9,1.5,11.9,8.9
				c0,4.9-4,9.1-11.9,9.1c-4.4,0-8.8-0.7-12.8-5l3.4-4.9c2,2.2,6.5,3.8,9.6,3.9c2.6,0.1,5-1.3,5-3.3c0-1.9-1.6-2.7-5.5-2.9
				c-5.2-0.4-11.5-2.3-11.5-8.6c0-6.4,6.6-8.7,11.7-8.7c4.3,0,7.6,0.8,10.8,3.7L1256.6,215.4z"/>
		</g>
		<circle id="XMLID_576_" class="st0" cx="973.6" cy="80.4" r="26.1"/>
		<polygon class="st1" points="999.6,250 999.6,120.1 947.7,120.1 947.7,163.2 891.1,54.4 789.4,250 758.8,250 758.8,263 782.6,263 
			842,263 891.1,167.7 940.2,263 945.4,263 947.7,263 999.6,263 1028.5,263 1028.5,250 		"/>
		<g id="XMLID_558_">
			<g>
				<path class="st1" d="M819.6,292.9c-1.9,1.9-4.3,2.7-6.9,2.7c-6.8,0-9.7-4.7-9.7-9.4c0-4.8,3.1-9.6,9.7-9.6
					c2.5,0,4.8,0.9,6.7,2.8l-2.3,2.2c-1.2-1.2-2.8-1.7-4.4-1.7c-4.4,0-6.3,3.3-6.3,6.3c0,3,1.8,6.2,6.3,6.2c1.6,0,3.4-0.7,4.6-1.9
					L819.6,292.9z"/>
				<path class="st1" d="M837.7,295.2h-4.1l-5.3-6.1H825v6.1h-3.4v-18.3c2.9,0,5.8,0,8.7,0c4.3,0,6.6,2.9,6.6,6.1
					c0,2.5-1.1,5-4.6,5.7l5.5,6.2V295.2z M825,280.2v5.8h5.2c2.2,0,3.1-1.5,3.1-2.9s-1-2.9-3.1-2.9H825z"/>
				<path class="st1" d="M852.7,295.2H839c0-6.1,0-12.2,0-18.3h13.7v3.3h-10.3v4.2h9.9v3.2h-9.9v4.1h10.3V295.2z"/>
				<path class="st1" d="M871.5,292.9c-1.9,1.9-4.3,2.7-6.9,2.7c-6.8,0-9.7-4.7-9.7-9.4c0-4.8,3.1-9.6,9.7-9.6
					c2.5,0,4.8,0.9,6.7,2.8l-2.3,2.2c-1.2-1.2-2.8-1.7-4.4-1.7c-4.4,0-6.3,3.3-6.3,6.3c0,3,1.8,6.2,6.3,6.2c1.6,0,3.4-0.7,4.6-1.9
					L871.5,292.9z"/>
				<path class="st1" d="M873.4,295.2V277h3.4v18.3H873.4z"/>
				<path class="st1" d="M900.7,287.4c0,4.7-3,8.2-8,8.2c-4.7,0-8-2.8-8-8h3.4c0,3.1,1.5,4.7,4.6,4.7c3.1,0,4.6-2.2,4.6-4.9v-7.3
					h-5.5V277c3,0,5.9,0,9,0V287.4z"/>
				<path class="st1" d="M903.6,285.3h9.6v2.9h-9.6V285.3z"/>
				<path class="st1" d="M916.5,295.2l7.5-15h-8.9V277h13.4l0.2,1.8l-8.2,16.4H916.5z"/>
				<path class="st1" d="M931.4,295.2l7.5-15H930V277h13.4l0.2,1.8l-8.2,16.4H931.4z"/>
				<path class="st1" d="M945.1,284.8c0-10.9,16-10.9,16,0v2.6c0,10.9-16,10.9-16,0V284.8z M948.5,287.4c0,6.6,9.2,6.6,9.2,0v-2.6
					c0-6.5-9.2-6.6-9.2,0V287.4z"/>
				<path class="st1" d="M963.3,284.8c0-10.9,16-10.9,16,0v2.6c0,10.9-16,10.9-16,0V284.8z M966.7,287.4c0,6.6,9.2,6.6,9.2,0v-2.6
					c0-6.5-9.2-6.6-9.2,0V287.4z"/>
			</g>
		</g>
	</g>
</g>
</svg>
